<?xml version="1.0" encoding="UTF-8" standalone="no"?>
<!-- Created with Inkscape (http://www.inkscape.org/) -->

<svg
   width="210mm"
   height="297mm"
   viewBox="0 0 210 297"
   version="1.1"
   id="svg10617"
   inkscape:version="1.2.2 (b0a8486541, 2022-12-01)"
   sodipodi:docname="3_week_stakeholder_groups.svg"
   xmlns:inkscape="http://www.inkscape.org/namespaces/inkscape"
   xmlns:sodipodi="http://sodipodi.sourceforge.net/DTD/sodipodi-0.dtd"
   xmlns="http://www.w3.org/2000/svg"
   xmlns:svg="http://www.w3.org/2000/svg">
  <sodipodi:namedview
     id="namedview10619"
     pagecolor="#ffffff"
     bordercolor="#999999"
     borderopacity="1"
     inkscape:showpageshadow="0"
     inkscape:pageopacity="0"
     inkscape:pagecheckerboard="0"
     inkscape:deskcolor="#d1d1d1"
     inkscape:document-units="mm"
     showgrid="false"
     inkscape:zoom="0.58618126"
     inkscape:cx="396.635"
     inkscape:cy="561.25984"
     inkscape:window-width="1596"
     inkscape:window-height="848"
     inkscape:window-x="0"
     inkscape:window-y="0"
     inkscape:window-maximized="1"
     inkscape:current-layer="layer1" />
  <defs
     id="defs10614" />
  <g
     inkscape:label="Layer 1"
     inkscape:groupmode="layer"
     id="layer1">
    <text
       xml:space="preserve"
       style="font-size:7.82508px;text-align:center;text-anchor:middle;fill:#000000;fill-opacity:1;stroke:none;stroke-width:1.00824;stroke-dasharray:none;stroke-opacity:1"
       x="163.43251"
       y="74.048264"
       id="text10675"><tspan
         sodipodi:role="line"
         id="tspan10673"
         style="fill:#000000;fill-opacity:1;stroke:none;stroke-width:1.00824"
         x="163.43251"
         y="74.048264">Топ-менеджмент</tspan></text>
    <text
       xml:space="preserve"
       style="font-size:7.7611px;text-align:center;text-anchor:middle;fill:#000000;fill-opacity:1;stroke:none;stroke-width:1;stroke-dasharray:none;stroke-opacity:1"
       x="165.53032"
       y="175.00374"
       id="text10781"><tspan
         sodipodi:role="line"
         id="tspan10779"
         style="stroke-width:1"
         x="165.53032"
         y="175.00374">Менеджеры</tspan></text>
    <text
       xml:space="preserve"
       style="font-size:7.7611px;text-align:center;text-anchor:middle;fill:#000000;fill-opacity:1;stroke:none;stroke-width:1;stroke-dasharray:none;stroke-opacity:1"
       x="57.829735"
       y="80.385788"
       id="text10785"><tspan
         sodipodi:role="line"
         id="tspan10783"
         style="stroke-width:1"
         x="57.829735"
         y="80.385788">Финотдел</tspan></text>
    <text
       xml:space="preserve"
       style="font-size:7.7611px;text-align:center;text-anchor:middle;fill:#000000;fill-opacity:1;stroke:none;stroke-width:1;stroke-dasharray:none;stroke-opacity:1"
       x="171.80009"
       y="142.03099"
       id="text11515"><tspan
         sodipodi:role="line"
         id="tspan11513"
         style="stroke-width:1"
         x="171.80009"
         y="142.03099">Разработчики</tspan></text>
    <text
       xml:space="preserve"
       style="font-size:7.7611px;text-align:center;text-anchor:middle;fill:#000000;fill-opacity:1;stroke:none;stroke-width:1;stroke-dasharray:none;stroke-opacity:1"
       x="97.990891"
       y="145.94167"
       id="text11519"><tspan
         sodipodi:role="line"
         id="tspan11517"
         style="stroke-width:1"
         x="97.990891"
         y="145.94167">Админы</tspan></text>
    <text
       xml:space="preserve"
       style="font-size:7.7611px;text-align:center;text-anchor:middle;fill:#000000;fill-opacity:1;stroke:none;stroke-width:1;stroke-dasharray:none;stroke-opacity:1"
       x="42.028336"
       y="145.10063"
       id="text12249"><tspan
         sodipodi:role="line"
         id="tspan12247"
         style="stroke-width:1"
         x="42.028336"
         y="145.10063">Юристы</tspan></text>
    <text
       xml:space="preserve"
       style="font-size:7.7611px;text-align:center;text-anchor:middle;fill:#000000;fill-opacity:1;stroke:none;stroke-width:1;stroke-dasharray:none;stroke-opacity:1"
       x="182.42839"
       y="192.07285"
       id="text12979"><tspan
         sodipodi:role="line"
         id="tspan12977"
         style="stroke-width:1"
         x="182.42839"
         y="192.07285">Клиенты</tspan></text>
    <text
       xml:space="preserve"
       style="font-size:7.7611px;text-align:center;text-anchor:middle;fill:#000000;fill-opacity:1;stroke:none;stroke-width:1;stroke-dasharray:none;stroke-opacity:1"
       x="124.98304"
       y="189.82129"
       id="text12983"><tspan
         sodipodi:role="line"
         id="tspan12981"
         style="stroke-width:1"
         x="124.98304"
         y="189.82129">воркеры</tspan></text>
    <text
       xml:space="preserve"
       style="font-size:7.7611px;text-align:center;text-anchor:middle;fill:#000000;fill-opacity:1;stroke:none;stroke-width:1;stroke-dasharray:none;stroke-opacity:1"
       x="61.155041"
       y="172.79449"
       id="text13713"><tspan
         sodipodi:role="line"
         id="tspan13711"
         style="stroke-width:1"
         x="61.155041"
         y="172.79449">кладовщики</tspan></text>
    <text
       xml:space="preserve"
       style="font-size:7.7611px;text-align:center;text-anchor:middle;fill:#000000;fill-opacity:1;stroke:none;stroke-width:1;stroke-dasharray:none;stroke-opacity:1"
       x="156.71278"
       y="90.649117"
       id="text13717"><tspan
         sodipodi:role="line"
         id="tspan13715"
         style="stroke-width:1"
         x="156.71278"
         y="90.649117">разработчики</tspan><tspan
         sodipodi:role="line"
         style="stroke-width:1"
         x="156.71278"
         y="100.35049"
         id="tspan13719">системы матчинга</tspan></text>
    <path
       style="fill:none;fill-opacity:1;stroke:#000000;stroke-width:1;stroke-dasharray:none;stroke-opacity:1"
       d="m 20.059419,209.88249 c 6.283483,0.32982 12.404538,-1.67147 18.659473,-1.67147 3.347667,0 6.679446,0.39438 10.030592,0.24684 4.507412,-0.19844 8.903319,-1.3391 13.424664,-1.36645 3.179234,-0.0192 6.347209,0.56215 9.51575,0.50956 2.775987,-0.0461 5.359313,-0.86748 8.092882,-1.16369 2.561431,-0.27755 5.15353,-0.19528 7.722621,-0.335 5.521328,-0.30026 11.017584,-1.01536 16.526059,-1.46694 4.34843,-0.35648 8.67282,0.0206 13.01914,-0.13224 4.57362,-0.1608 9.14539,-1.10355 13.73145,-1.01734 1.71165,0.0322 3.2238,0.8255 4.84691,1.23597 2.44197,0.61755 5.12671,0.58947 7.60978,1.03321 2.64389,0.47248 5.23283,1.20838 7.88307,1.65737 4.79883,0.81299 9.67733,0.43168 14.50548,0.82868 4.35311,0.35795 8.79955,2.07044 13.21485,1.91831 1.39768,-0.0481 2.76816,-0.56221 4.15223,-0.74052 1.99536,-0.25706 3.98978,-0.37053 5.9771,-0.71408 1.95434,-0.33785 4.03904,-0.98748 6.04233,-1.00323 0.41477,-0.003 0.77176,0.25623 1.16192,0.21863 0.2561,-0.0247 -0.48612,-0.16901 -0.72642,-0.26095 -0.39575,-0.15142 -3.76484,-2.39872 -3.13313,-2.50192 0.99244,-0.16213 1.85955,0.17585 2.72937,0.62592 1.70828,0.88392 3.12504,1.78912 4.42552,3.21247 1.58106,1.73046 0.13461,2.20082 -1.58155,3.38879 -0.1736,0.12017 -3.6066,2.49368 -3.78021,2.55834 -0.0818,0.0305 0.53429,-3.57455 0.82339,-4.31797"
       id="path15173" />
    <path
       style="fill:none;fill-opacity:1;stroke:#000000;stroke-width:1;stroke-dasharray:none;stroke-opacity:1"
       d="m 15.665636,207.25186 c -0.463123,-1.41052 -1.043268,-2.78787 -1.389367,-4.23157 -0.489741,-2.04289 -0.195013,-4.53101 -0.435499,-6.62947 -0.759866,-6.6305 -1.583875,-13.30044 -2.891575,-19.84607 -0.755618,-3.78222 -1.2532015,-7.62577 -2.0364446,-11.39704 -0.9253556,-4.45553 -1.1439528,-3.55114 -2.3414704,-8.40496 -1.3122101,-5.3187 -2.6617941,-12.19033 -2.9568114,-17.60511 -0.2837696,-5.20833 0.024553,-3.70213 -0.031737,-8.17222 -0.041804,-3.31976 -0.4511823,-6.63354 -0.2750521,-9.9583 0.2015667,-3.80493 0.7653607,-8.05823 1.6309186,-11.76201 0.8359349,-3.57703 2.144381,-7.02298 2.9409432,-10.614199 1.573493,-7.093924 3.0252467,-15.665275 3.8278107,-22.898097 0.286312,-2.580291 0.33454,-5.133795 0.744051,-7.70499 0.572067,-3.591832 1.691212,-7.199598 2.034681,-10.816957 0.260162,-2.739972 -0.08396,-5.778934 -0.25742,-8.519568 -0.09307,-1.470517 -0.382563,-2.986537 -0.356158,-4.464309 0.02839,-1.588714 0.719894,-3.031956 0.759921,-4.622993 0.04544,-1.806437 -0.614383,-2.895925 -0.615342,-2.893338 -0.440913,1.188546 -0.121919,2.646193 -0.29092,3.882467 -0.194027,1.419339 -0.507924,2.710198 -0.936236,4.069363 -0.236553,0.750657 -0.969735,2.939859 -0.969735,2.152811 0,-0.953367 1.074904,-11.18445 1.664418,-11.196036 2.475373,-0.04864 5.488548,5.99114 6.849859,7.779043 0.57932,0.76086 1.364323,1.340427 2.05055,2.00647"
       id="path15175" />
    <text
       xml:space="preserve"
       style="font-size:7.7611px;text-align:center;text-anchor:middle;fill:#000000;fill-opacity:1;stroke:none;stroke-width:1;stroke-dasharray:none;stroke-opacity:1"
       x="77.01992"
       y="221.79083"
       id="text15179"><tspan
         sodipodi:role="line"
         id="tspan15177"
         style="stroke-width:1;fill:#000000;fill-opacity:1;stroke:none;stroke-opacity:1"
         x="77.01992"
         y="221.79083">интерес</tspan></text>
    <text
       xml:space="preserve"
       style="font-size:7.7611px;text-align:center;text-anchor:middle;fill:#000000;fill-opacity:1;stroke:none;stroke-width:1;stroke-dasharray:none;stroke-opacity:1"
       x="20.914549"
       y="21.983019"
       id="text15183"><tspan
         sodipodi:role="line"
         id="tspan15181"
         style="stroke-width:1"
         x="20.914549"
         y="21.983019">влияние</tspan></text>
  </g>
</svg>
