<?xml version="1.0" encoding="UTF-8" standalone="no"?>
<!-- Created with Inkscape (http://www.inkscape.org/) -->

<svg
   width="841mm"
   height="1189mm"
   viewBox="0 0 841 1189"
   version="1.1"
   id="svg4531"
   inkscape:version="1.2.2 (b0a8486541, 2022-12-01)"
   sodipodi:docname="1_week_data_model_communications.svg"
   xmlns:inkscape="http://www.inkscape.org/namespaces/inkscape"
   xmlns:sodipodi="http://sodipodi.sourceforge.net/DTD/sodipodi-0.dtd"
   xmlns="http://www.w3.org/2000/svg"
   xmlns:svg="http://www.w3.org/2000/svg">
  <sodipodi:namedview
     id="namedview4533"
     pagecolor="#ffffff"
     bordercolor="#999999"
     borderopacity="1"
     inkscape:showpageshadow="0"
     inkscape:pageopacity="0"
     inkscape:pagecheckerboard="0"
     inkscape:deskcolor="#d1d1d1"
     inkscape:document-units="mm"
     showgrid="false"
     inkscape:zoom="0.17869693"
     inkscape:cx="249.02499"
     inkscape:cy="1992.1999"
     inkscape:window-width="1596"
     inkscape:window-height="848"
     inkscape:window-x="0"
     inkscape:window-y="0"
     inkscape:window-maximized="1"
     inkscape:current-layer="layer10" />
  <defs
     id="defs4528">
    <rect
       x="827.55944"
       y="2479.6161"
       width="230.18708"
       height="339.92347"
       id="rect13046" />
  </defs>
  <g
     inkscape:label="Layer 1"
     inkscape:groupmode="layer"
     id="layer1"
     style="display:inline">
    <rect
       style="fill:none;fill-opacity:1;stroke:#000000;stroke-width:1.74784;stroke-dasharray:none;stroke-opacity:1"
       id="rect4587-93"
       width="140.83238"
       height="110.66144"
       x="295.49799"
       y="885.19153" />
    <text
       xml:space="preserve"
       style="font-size:9.26678px;text-align:center;text-anchor:middle;fill:#000000;fill-opacity:1;stroke:none;stroke-width:1.74784;stroke-dasharray:none;stroke-opacity:1"
       x="354.19681"
       y="899.26917"
       id="text5070-74"><tspan
         sodipodi:role="line"
         id="tspan5068-52"
         style="fill:#000000;fill-opacity:1;stroke:none;stroke-width:1.74784"
         x="354.19681"
         y="899.26917">расчет с воркером</tspan></text>
    <text
       xml:space="preserve"
       style="font-size:9.26678px;text-align:center;text-anchor:middle;fill:#000000;fill-opacity:1;stroke:none;stroke-width:1.74784;stroke-dasharray:none;stroke-opacity:1"
       x="302.98477"
       y="407.5755"
       id="text12351"><tspan
         sodipodi:role="line"
         id="tspan12349"
         style="stroke-width:1.74784"
         x="302.98477"
         y="407.5755"></tspan></text>
    <rect
       style="fill:none;fill-opacity:1;stroke:#000000;stroke-width:0.639;stroke-linecap:butt;stroke-linejoin:miter;stroke-miterlimit:4.2;stroke-dasharray:none;stroke-opacity:1"
       id="rect18348-9-1"
       width="27.526196"
       height="13.355519"
       x="311.55609"
       y="942.72583" />
    <text
       xml:space="preserve"
       style="font-size:5.64444px;text-align:center;white-space:pre;shape-inside:url(#rect18348-9-1);display:inline;fill:#000000;fill-opacity:1;stroke:none;stroke-width:1.365;stroke-linecap:butt;stroke-linejoin:miter;stroke-miterlimit:4.2;stroke-dasharray:none;stroke-opacity:1"
       x="95.747009"
       y="119.88477"
       id="text18352-2-4"
       transform="translate(-0.180533,3.05415)"><tspan
         x="315.48673"
         y="947.8623"
         id="tspan18151">воркер</tspan></text>
    <rect
       style="fill:none;fill-opacity:1;stroke:#000000;stroke-width:0.639;stroke-linecap:butt;stroke-linejoin:miter;stroke-miterlimit:4.2;stroke-dasharray:none;stroke-opacity:1"
       id="rect18348-73"
       width="27.526196"
       height="13.355519"
       x="327.63354"
       y="976.75525" />
    <text
       xml:space="preserve"
       style="font-size:5.64444px;text-align:center;white-space:pre;shape-inside:url(#rect18348-73);display:inline;fill:#000000;fill-opacity:1;stroke:none;stroke-width:1.365;stroke-linecap:butt;stroke-linejoin:miter;stroke-miterlimit:4.2;stroke-dasharray:none;stroke-opacity:1"
       x="95.747009"
       y="119.88477"
       id="text18352-6-9"
       transform="translate(-0.180533,3.05415)"><tspan
         x="333.40678"
         y="981.8916"
         id="tspan18153">бонус</tspan></text>
    <rect
       style="fill:none;fill-opacity:1;stroke:#000000;stroke-width:0.864853;stroke-linecap:butt;stroke-linejoin:miter;stroke-miterlimit:4.2;stroke-dasharray:none;stroke-opacity:1"
       id="rect18348-78"
       width="33.854446"
       height="19.891787"
       x="376.12674"
       y="944.29926" />
    <text
       xml:space="preserve"
       style="font-size:5.64444px;text-align:center;white-space:pre;shape-inside:url(#rect18348-78);display:inline;fill:#000000;fill-opacity:1;stroke:none;stroke-width:1.365;stroke-linecap:butt;stroke-linejoin:miter;stroke-miterlimit:4.2;stroke-dasharray:none;stroke-opacity:1"
       x="95.747009"
       y="119.88477"
       id="text18352-4"
       transform="translate(-0.180533,3.05415)"><tspan
         x="382.93888"
         y="949.43456"
         id="tspan18155">инвойс </tspan><tspan
         x="381.63784"
         y="956.49011"
         id="tspan18157">воркера</tspan></text>
    <path
       style="fill:none;fill-opacity:1;stroke:#000000;stroke-width:0.865;stroke-dasharray:none;stroke-opacity:1"
       d="m 341.26065,949.42119 c 0.59095,-0.19711 1.16615,-0.44995 1.77284,-0.59129 1.5961,-0.37184 3.56426,0.29446 5.13882,0.55888 2.63242,0.44204 5.29275,0.82288 7.91056,1.3289 0.74758,0.14449 1.44217,0.40248 2.20404,0.48617 2.11537,0.23238 4.35215,0.11221 6.453,0.5579 0.21481,0.0456 5.33082,1.04592 5.46195,0.81814 0.0815,-0.1416 -0.69821,-1.08664 -0.8005,-1.20613 -0.48392,-0.56533 -1.05452,-1.08135 -1.71881,-1.42613 -0.1597,-0.0829 -0.45966,-0.46278 -0.45966,-0.28286 0,0.27178 1.35186,0.909 1.57541,1.12559 0.75239,0.72895 0.84828,1.64904 1.45759,2.44565 0.31483,0.41164 1.41994,0.79774 1.92606,1.0696 0.29437,0.15812 -1.35858,0.52261 -1.50275,0.55004 -1.11901,0.21294 -2.21959,0.54505 -3.28542,0.95565 -0.75207,0.28975 -1.53442,0.75618 -1.50275,0.70522 0.0631,-0.10152 0.0904,-0.22132 0.13555,-0.33197"
       id="path13419" />
    <path
       style="fill:none;fill-opacity:1;stroke:#000000;stroke-width:0.865;stroke-dasharray:none;stroke-opacity:1"
       d="m 328.51771,959.61829 c 1.84497,2.84702 4.56208,4.8206 6.9932,7.11104 0.43177,0.4068 4.5711,3.93581 4.23815,4.39825 -0.11118,0.15439 -6.76294,-1.72019 -3.27562,-1.15014 0.9557,0.15623 1.97638,0.2771 2.88864,0.6237 0.51438,0.19545 1.37446,0.97253 1.97125,0.84172 0.0348,-0.008 -0.0627,-0.41145 -0.27993,-1.04505 -0.23172,-0.67583 -0.49405,-1.3089 -0.49405,-2.03213 0,-0.20061 -0.13875,0.3833 -0.26125,0.54215"
       id="path14149" />
    <path
       style="fill:none;fill-opacity:1;stroke:#000000;stroke-width:0.865;stroke-dasharray:none;stroke-opacity:1"
       d="m 372.55028,965.27963 c -0.54576,0.0864 -1.1239,0.055 -1.63733,0.25929 -1.84128,0.73279 -3.02916,2.25237 -4.63494,3.29623 -1.38417,0.8998 -2.92177,1.98927 -4.42674,2.70497 -1.11009,0.5279 -2.13157,0.97139 -3.12336,1.71685 -0.0415,0.0312 -2.75441,2.05899 -2.95148,1.96046 -0.17325,-0.0866 0.16209,-0.0799 0.54904,-0.63156 0.28379,-0.40457 1.84457,-3.01056 1.84457,-3.28837 0,-0.36941 -0.34197,0.65585 -0.4862,0.99594 -0.20518,0.48387 -0.54904,1.07934 -0.54904,1.61179 0,0.72488 3.66877,0.24593 4.16743,0.0972"
       id="path14151" />
    <rect
       style="fill:none;fill-opacity:1;stroke:#000000;stroke-width:0.639;stroke-linecap:butt;stroke-linejoin:miter;stroke-miterlimit:4.2;stroke-dasharray:none;stroke-opacity:1"
       id="rect18348-7-90"
       width="27.526196"
       height="13.355519"
       x="340.71329"
       y="908.07239" />
    <text
       xml:space="preserve"
       style="font-size:5.64444px;text-align:center;white-space:pre;shape-inside:url(#rect18348-7-90);display:inline;fill:#000000;fill-opacity:1;stroke:none;stroke-width:1.365;stroke-linecap:butt;stroke-linejoin:miter;stroke-miterlimit:4.2;stroke-dasharray:none;stroke-opacity:1"
       x="95.747009"
       y="119.88477"
       id="text18352-5-9"
       transform="translate(-0.18053,3.05415)"><tspan
         x="345.8067"
         y="913.208"
         id="tspan18159">услуга</tspan></text>
    <path
       style="fill:none;fill-opacity:1;stroke:#000000;stroke-width:0.865;stroke-dasharray:none;stroke-opacity:1"
       d="m 385.5726,941.38818 c -2.10264,-0.20516 -3.41939,-2.00954 -4.81584,-3.41781 -1.1811,-1.1911 -2.46919,-2.29246 -3.73702,-3.39024 -1.53244,-1.32689 -3.30068,-2.38805 -4.81587,-3.72115 -0.94337,-0.83 -1.59009,-1.8016 -2.3958,-2.74259 -0.69805,-0.81529 -1.60563,-1.48202 -2.35069,-2.2596 -0.30499,-0.31832 -0.79164,-0.42553 -1.04122,-0.77216 -0.27564,-0.3828 0.62696,0.70795 0.8958,1.09553 0.80526,1.16092 0.65397,2.60774 1.14067,3.47298 0.25014,0.44468 -0.56316,-0.85495 -0.78134,-1.31615 -0.30646,-0.64788 -0.49477,-0.88934 -0.62005,-1.55683 -0.0375,-0.19963 -0.2104,-2.79302 -0.0535,-2.88716 0.29866,-0.1792 6.08981,2.69711 4.72392,3.14873"
       id="path17772" />
    <path
       style="fill:none;fill-opacity:1;stroke:#000000;stroke-width:0.865;stroke-dasharray:none;stroke-opacity:1"
       d="m 340.17757,924.99523 c -2.76014,1.46767 -4.82495,3.81698 -6.97519,6.02922 -1.71532,1.76477 -3.36777,3.57015 -4.78578,5.58882 -1.09376,1.5571 -2.19924,3.32181 -3.45289,4.71307 -0.007,0.008 0.26331,-0.52387 0.40611,-1.05457 0.21066,-0.78288 0.82147,-1.88992 0.57409,-2.67327 -0.10269,-0.32523 0.11268,0.67333 0.14541,1.01282 0.0204,0.21024 -0.0156,1.66201 0.25236,1.71559 1.25643,0.25127 2.04568,-2.51026 3.18551,-2.96323"
       id="path17774" />
  </g>
  <g
     inkscape:groupmode="layer"
     id="layer2"
     inkscape:label="Layer 2"
     style="display:inline">
    <rect
       style="fill:none;fill-opacity:1;stroke:#000000;stroke-width:0.639;stroke-linecap:butt;stroke-linejoin:miter;stroke-miterlimit:4.2;stroke-dasharray:none;stroke-opacity:1"
       id="rect18348"
       width="27.526196"
       height="13.355519"
       x="66.697601"
       y="463.35266"
       sodipodi:insensitive="true" />
    <text
       xml:space="preserve"
       style="font-size:5.64444px;text-align:center;white-space:pre;shape-inside:url(#rect18348);display:inline;fill:#000000;fill-opacity:1;stroke:none;stroke-width:1.365;stroke-linecap:butt;stroke-linejoin:miter;stroke-miterlimit:4.2;stroke-dasharray:none;stroke-opacity:1"
       x="95.747009"
       y="119.88477"
       id="text18352"
       transform="translate(-0.18053,3.05415)"><tspan
         x="70.7892"
         y="468.48925"
         id="tspan18161">клиент</tspan></text>
    <rect
       style="fill:none;fill-opacity:1;stroke:#000000;stroke-width:0.639;stroke-linecap:butt;stroke-linejoin:miter;stroke-miterlimit:4.2;stroke-dasharray:none;stroke-opacity:1"
       id="rect18348-7"
       width="27.526196"
       height="13.355519"
       x="118.74026"
       y="492.22571" />
    <text
       xml:space="preserve"
       style="font-size:5.64444px;text-align:center;white-space:pre;shape-inside:url(#rect18348-7);display:inline;fill:#000000;fill-opacity:1;stroke:none;stroke-width:1.365;stroke-linecap:butt;stroke-linejoin:miter;stroke-miterlimit:4.2;stroke-dasharray:none;stroke-opacity:1"
       x="95.747009"
       y="119.88477"
       id="text18352-5"
       transform="translate(-0.18053,3.05415)"><tspan
         x="123.83307"
         y="497.3623"
         id="tspan18163">услуга</tspan></text>
    <rect
       style="fill:none;fill-opacity:1;stroke:#000000;stroke-width:1.74784;stroke-dasharray:none;stroke-opacity:1"
       id="rect4587-9"
       width="140.83238"
       height="110.66144"
       x="44.541107"
       y="433.37259" />
    <text
       xml:space="preserve"
       style="font-size:9.26678px;text-align:center;text-anchor:middle;fill:#000000;fill-opacity:1;stroke:none;stroke-width:1.74784;stroke-dasharray:none;stroke-opacity:1"
       x="103.23996"
       y="447.4502"
       id="text5070-3"><tspan
         sodipodi:role="line"
         id="tspan5068-1"
         style="fill:#000000;fill-opacity:1;stroke:none;stroke-width:1.74784"
         x="103.23996"
         y="447.4502">заказ услуг</tspan></text>
    <path
       style="fill:none;fill-opacity:1;stroke:#000000;stroke-width:0.865;stroke-dasharray:none;stroke-opacity:1"
       d="m 97.638699,474.01874 c 3.639051,0.76768 6.941501,2.52306 10.320271,3.99401 1.06254,0.4626 2.22186,0.69213 3.26351,1.20582 2.25844,1.11373 4.55612,2.5164 6.48504,4.14377 0.93669,0.79026 1.1503,2.17482 2.03729,3.02188 0.23363,0.22313 0.59629,0.25821 0.84168,0.48663 0.12887,0.11998 0.11681,0.27111 0.24956,0.27111 0.27421,0 -0.5502,-0.006 -0.82127,-0.0476 -0.53764,-0.0821 -1.09394,-0.0798 -1.60056,-0.30853 -0.86175,-0.38904 -1.6542,-0.93009 -2.51484,-1.3181 -0.23149,-0.10438 -0.91423,-0.17791 -0.69649,-0.30856 0.36915,-0.22148 4.47227,1.37375 5.02061,1.61759 0.6082,0.27045 1.22362,0.5107 1.82856,0.7861 0.21239,0.0967 0.62389,0.55097 0.62389,0.31761 0,-0.24755 -0.34202,-0.37532 -0.42651,-0.60802 -0.68847,-1.89616 -0.0328,-0.30533 -0.59213,-2.04861 -0.18761,-0.58478 -0.42728,-1.1516 -0.6341,-1.72987 -0.0303,-0.0846 -0.0329,-0.31967 -0.093,-0.25297 -0.34499,0.38253 -0.55271,0.708 -0.74866,1.18766"
       id="path14153" />
  </g>
  <g
     inkscape:groupmode="layer"
     id="layer3"
     inkscape:label="Layer 3"
     style="display:inline">
    <rect
       style="fill:none;fill-opacity:1;stroke:#000000;stroke-width:1.74784;stroke-dasharray:none;stroke-opacity:1"
       id="rect4587"
       width="140.83238"
       height="110.66144"
       x="402.32425"
       y="41.980274" />
    <text
       xml:space="preserve"
       style="font-size:9.26678px;text-align:center;text-anchor:middle;fill:#000000;fill-opacity:1;stroke:none;stroke-width:1.74784;stroke-dasharray:none;stroke-opacity:1"
       x="461.02307"
       y="56.05785"
       id="text5070"><tspan
         sodipodi:role="line"
         id="tspan5068"
         style="fill:#000000;fill-opacity:1;stroke:none;stroke-width:1.74784"
         x="461.02307"
         y="56.05785">регистрация воркера</tspan></text>
    <rect
       style="fill:none;fill-opacity:1;stroke:#000000;stroke-width:0.639;stroke-linecap:butt;stroke-linejoin:miter;stroke-miterlimit:4.2;stroke-dasharray:none;stroke-opacity:1"
       id="rect18348-9-2"
       width="27.526196"
       height="13.355519"
       x="496.85925"
       y="88.256218" />
    <text
       xml:space="preserve"
       style="font-size:5.64444px;text-align:center;white-space:pre;shape-inside:url(#rect18348-9-2);display:inline;fill:#000000;fill-opacity:1;stroke:none;stroke-width:1.365;stroke-linecap:butt;stroke-linejoin:miter;stroke-miterlimit:4.2;stroke-dasharray:none;stroke-opacity:1"
       x="95.747009"
       y="119.88477"
       id="text18352-2-0"
       transform="translate(-0.180533,3.05415)"><tspan
         x="500.78946"
         y="93.391595"
         id="tspan18165">воркер</tspan></text>
    <rect
       style="fill:none;fill-opacity:1;stroke:#000000;stroke-width:0.811108;stroke-linecap:butt;stroke-linejoin:miter;stroke-miterlimit:4.2;stroke-dasharray:none;stroke-opacity:1"
       id="rect18348-1"
       width="44.929787"
       height="13.183412"
       x="422.74619"
       y="108.56387" />
    <text
       xml:space="preserve"
       style="font-size:5.64444px;text-align:center;white-space:pre;shape-inside:url(#rect18348-1);display:inline;fill:#000000;fill-opacity:1;stroke:none;stroke-width:1.365;stroke-linecap:butt;stroke-linejoin:miter;stroke-miterlimit:4.2;stroke-dasharray:none;stroke-opacity:1"
       x="95.747009"
       y="119.88477"
       id="text18352-29"
       transform="translate(-0.180533,3.05415)"><tspan
         x="425.93519"
         y="113.70019"
         id="tspan18167">тестирование</tspan></text>
    <path
       style="fill:none;fill-opacity:1;stroke:#000000;stroke-width:0.865;stroke-dasharray:none;stroke-opacity:1"
       d="m 494.08839,94.325079 c -2.67105,-0.921168 -9.1313,1.988537 -14.54388,3.782489 -3.53428,1.171403 -7.14145,1.717243 -10.26441,3.875682 -1.34998,0.93306 -2.57966,1.91713 -3.75658,3.04835 -0.1161,0.11159 -1.32805,1.27607 -1.35747,1.25496 -0.34391,-0.24669 2.08251,-3.49112 2.2583,-3.70586 0.15846,-0.19358 0.30628,-0.39573 0.46492,-0.58917 3.41302,-4.161804 -1.47978,1.90511 -1.36575,2.09264 0.0772,0.12702 0.2975,-0.009 0.44524,-0.0259 1.26468,-0.14148 2.46404,-0.6964 3.69964,-0.99092 0.18569,-0.0443 0.47369,0.0511 0.56018,-0.11908 0.0679,-0.13357 -0.25196,-0.16301 -0.36965,-0.25575 -0.26543,-0.20918 -0.51911,-0.43282 -0.77867,-0.64923"
       id="path14155" />
  </g>
  <g
     inkscape:groupmode="layer"
     id="layer4"
     inkscape:label="Layer 4"
     style="display:inline">
    <rect
       style="fill:none;fill-opacity:1;stroke:#000000;stroke-width:1.74784;stroke-dasharray:none;stroke-opacity:1"
       id="rect4587-4"
       width="140.83238"
       height="110.66144"
       x="482.4581"
       y="425.68195" />
    <text
       xml:space="preserve"
       style="font-size:9.26678px;text-align:center;text-anchor:middle;fill:#000000;fill-opacity:1;stroke:none;stroke-width:1.74784;stroke-dasharray:none;stroke-opacity:1"
       x="541.15692"
       y="439.75958"
       id="text5070-43"><tspan
         sodipodi:role="line"
         id="tspan5068-07"
         style="fill:#000000;fill-opacity:1;stroke:none;stroke-width:1.74784"
         x="541.15692"
         y="439.75958">выполнение заказа</tspan></text>
    <rect
       style="fill:none;fill-opacity:1;stroke:#000000;stroke-width:0.639;stroke-linecap:butt;stroke-linejoin:miter;stroke-miterlimit:4.2;stroke-dasharray:none;stroke-opacity:1"
       id="rect18348-92"
       width="27.526196"
       height="13.355519"
       x="505.39371"
       y="467.17197" />
    <text
       xml:space="preserve"
       style="font-size:5.64444px;text-align:center;white-space:pre;shape-inside:url(#rect18348-92);display:inline;fill:#000000;fill-opacity:1;stroke:none;stroke-width:1.365;stroke-linecap:butt;stroke-linejoin:miter;stroke-miterlimit:4.2;stroke-dasharray:none;stroke-opacity:1"
       x="95.747009"
       y="119.88477"
       id="text18352-66"
       transform="translate(-0.18053,3.054146)"><tspan
         x="509.48549"
         y="472.30761"
         id="tspan18169">клиент</tspan></text>
    <rect
       style="fill:none;fill-opacity:1;stroke:#000000;stroke-width:0.639;stroke-linecap:butt;stroke-linejoin:miter;stroke-miterlimit:4.2;stroke-dasharray:none;stroke-opacity:1"
       id="rect18348-9-4"
       width="27.526196"
       height="13.355519"
       x="576.09265"
       y="494.11096" />
    <text
       xml:space="preserve"
       style="font-size:5.64444px;text-align:center;white-space:pre;shape-inside:url(#rect18348-9-4);display:inline;fill:#000000;fill-opacity:1;stroke:none;stroke-width:1.365;stroke-linecap:butt;stroke-linejoin:miter;stroke-miterlimit:4.2;stroke-dasharray:none;stroke-opacity:1"
       x="95.747009"
       y="119.88477"
       id="text18352-2-9"
       transform="translate(-0.18053,3.054146)"><tspan
         x="580.02286"
         y="499.24706"
         id="tspan18171">воркер</tspan></text>
    <rect
       style="fill:none;fill-opacity:1;stroke:#000000;stroke-width:0.639;stroke-linecap:butt;stroke-linejoin:miter;stroke-miterlimit:4.2;stroke-dasharray:none;stroke-opacity:1"
       id="rect18348-7-1"
       width="27.526196"
       height="13.355519"
       x="565.55597"
       y="450.29733" />
    <text
       xml:space="preserve"
       style="font-size:5.64444px;text-align:center;white-space:pre;shape-inside:url(#rect18348-7-1);display:inline;fill:#000000;fill-opacity:1;stroke:none;stroke-width:1.365;stroke-linecap:butt;stroke-linejoin:miter;stroke-miterlimit:4.2;stroke-dasharray:none;stroke-opacity:1"
       x="95.747009"
       y="119.88477"
       id="text18352-5-5"
       transform="translate(-0.18053,3.05415)"><tspan
         x="570.64947"
         y="455.43261"
         id="tspan18173">услуга</tspan></text>
    <path
       style="fill:none;fill-opacity:1;stroke:#000000;stroke-width:0.865;stroke-dasharray:none;stroke-opacity:1"
       d="m 536.6876,467.62881 c -0.69906,-0.72435 -0.48197,1.3458 -0.95202,1.25383 -0.14404,-0.0282 0.29633,-0.10247 0.3793,-0.22352 0.22209,-0.32414 0.25604,-0.79769 0.57272,-1.03031 0.43386,-0.31869 1.03576,-0.30319 1.53077,-0.51477 1.06006,-0.45305 2.08315,-1.16983 3.14434,-1.65719 1.89891,-0.87212 3.74049,-1.86095 5.68886,-2.62507 3.09081,-1.21213 6.3464,-1.8832 9.53614,-2.74923 1.4034,-0.38103 4.00894,-1.44574 5.37876,-1.44574 1.07157,0 -0.90307,-0.1434 -1.14469,-0.20544 -0.19973,-0.0513 -1.97932,-0.41617 -1.97932,-0.6081 0,-0.0983 1.59776,0.008 1.66174,0.0188 0.70803,0.12277 1.40883,0.39246 2.08994,0.61412 0.2153,0.0701 0.87607,0.22847 0.65477,0.18061 -0.14909,-0.0322 -0.5202,0.28016 -0.57198,0.3289 -0.59031,0.55544 -1.09016,2.59318 -1.50368,2.22165"
       id="path14191" />
    <path
       style="fill:none;fill-opacity:1;stroke:#000000;stroke-width:0.865;stroke-dasharray:none;stroke-opacity:1"
       d="m 579.5501,467.26908 c 1.27132,1.47244 1.55802,3.45525 2.25475,5.21849 1.27146,3.21765 2.08661,6.55156 3.26853,9.7935 0.63008,1.72833 0.88228,3.58669 1.3095,5.37429 0.0407,0.17034 0.35306,1.00851 0.0279,0.95504 -1.10453,-0.18164 -1.63841,-2.25179 -2.04105,-3.12102 -0.29581,-0.6386 -0.31229,-0.63625 -0.51703,-1.235 -0.0298,-0.0872 -0.11236,-0.33189 -0.0414,-0.27321 0.38613,0.31943 0.61116,0.42767 0.94451,0.8685 0.25355,0.3353 1.81827,3.00479 2.29616,2.92309 0.31025,-0.053 0.39259,-4.08186 0.46209,-4.52988 0.0114,-0.0731 -0.0457,0.14065 -0.0692,0.21074"
       id="path14195" />
  </g>
  <g
     inkscape:groupmode="layer"
     id="layer5"
     inkscape:label="Layer 5"
     style="display:inline">
    <rect
       style="fill:none;fill-opacity:1;stroke:#000000;stroke-width:1.74784;stroke-dasharray:none;stroke-opacity:1"
       id="rect4587-94"
       width="140.83238"
       height="110.66144"
       x="245.15015"
       y="278.02988" />
    <text
       xml:space="preserve"
       style="font-size:9.26678px;text-align:center;text-anchor:middle;fill:#000000;fill-opacity:1;stroke:none;stroke-width:1.74784;stroke-dasharray:none;stroke-opacity:1"
       x="303.84903"
       y="292.10751"
       id="text5070-7"><tspan
         sodipodi:role="line"
         id="tspan5068-8"
         style="fill:#000000;fill-opacity:1;stroke:none;stroke-width:1.74784"
         x="303.84903"
         y="292.10751">матчинг</tspan></text>
    <rect
       style="fill:none;fill-opacity:1;stroke:#000000;stroke-width:0.639;stroke-linecap:butt;stroke-linejoin:miter;stroke-miterlimit:4.2;stroke-dasharray:none;stroke-opacity:1"
       id="rect18348-8"
       width="27.526196"
       height="13.355519"
       x="274.36868"
       y="311.63638" />
    <text
       xml:space="preserve"
       style="font-size:5.64444px;text-align:center;white-space:pre;shape-inside:url(#rect18348-8);display:inline;fill:#000000;fill-opacity:1;stroke:none;stroke-width:1.365;stroke-linecap:butt;stroke-linejoin:miter;stroke-miterlimit:4.2;stroke-dasharray:none;stroke-opacity:1"
       x="95.747009"
       y="119.88477"
       id="text18352-6"
       transform="translate(-0.18053,3.05415)"><tspan
         x="278.4601"
         y="316.77245"
         id="tspan18175">клиент</tspan></text>
    <rect
       style="fill:none;fill-opacity:1;stroke:#000000;stroke-width:0.639;stroke-linecap:butt;stroke-linejoin:miter;stroke-miterlimit:4.2;stroke-dasharray:none;stroke-opacity:1"
       id="rect18348-7-8"
       width="27.526196"
       height="13.355519"
       x="281.37027"
       y="349.43515" />
    <text
       xml:space="preserve"
       style="font-size:5.64444px;text-align:center;white-space:pre;shape-inside:url(#rect18348-7-8);display:inline;fill:#000000;fill-opacity:1;stroke:none;stroke-width:1.365;stroke-linecap:butt;stroke-linejoin:miter;stroke-miterlimit:4.2;stroke-dasharray:none;stroke-opacity:1"
       x="95.747009"
       y="119.88477"
       id="text18352-5-8"
       transform="translate(-0.18053,3.05415)"><tspan
         x="286.46393"
         y="354.57128"
         id="tspan18177">услуга</tspan></text>
    <rect
       style="fill:none;fill-opacity:1;stroke:#000000;stroke-width:0.639;stroke-linecap:butt;stroke-linejoin:miter;stroke-miterlimit:4.2;stroke-dasharray:none;stroke-opacity:1"
       id="rect18348-9"
       width="27.526196"
       height="13.355519"
       x="332.67856"
       y="325.24838" />
    <text
       xml:space="preserve"
       style="font-size:5.64444px;text-align:center;white-space:pre;shape-inside:url(#rect18348-9);display:inline;fill:#000000;fill-opacity:1;stroke:none;stroke-width:1.365;stroke-linecap:butt;stroke-linejoin:miter;stroke-miterlimit:4.2;stroke-dasharray:none;stroke-opacity:1"
       x="95.747009"
       y="119.88477"
       id="text18352-2"
       transform="translate(-0.18053,3.05415)"><tspan
         x="336.6088"
         y="330.38378"
         id="tspan18179">воркер</tspan></text>
    <path
       style="fill:none;fill-opacity:1;stroke:#000000;stroke-width:0.865;stroke-dasharray:none;stroke-opacity:1"
       d="m 291.31966,327.61441 c 0.36658,0.46058 0.74742,0.91016 1.09971,1.38176 0.63067,0.84412 0.88255,1.96564 1.35912,2.89488 0.50003,0.97502 1.21216,1.77599 1.67055,2.77368 1.15996,2.52463 2.39699,5.00785 3.56992,7.5283 0.51538,1.10752 1.10871,2.14749 1.65018,3.2403 0.12811,0.25863 0.29469,0.49866 0.40431,0.76565 0.0293,0.0712 0.013,0.24506 0.0838,0.21519 0.25796,-0.10862 -0.43175,-0.35719 -0.63313,-0.55158 -0.54398,-0.52515 -1.00679,-1.29077 -1.46327,-1.88574 -0.76528,-0.9974 -1.24611,-2.63427 -1.35912,-2.57778 -0.31773,0.15888 0.52068,0.48344 0.77809,0.72826 0.52142,0.49589 1.48839,1.98882 2.30368,1.98882 0.01,0 -0.11319,-0.85391 -0.24916,-1.5222 -0.20259,-0.99549 -0.39944,-1.98421 -0.58103,-2.96963"
       id="path14197" />
    <path
       style="fill:none;fill-opacity:1;stroke:#000000;stroke-width:0.865;stroke-dasharray:none;stroke-opacity:1"
       d="m 313.55792,350.19585 c 3.85659,-3.28895 7.9085,-6.3383 11.9023,-9.46046 1.00828,-0.78822 3.00056,-1.57626 3.51782,-2.84845 0.24575,-0.60445 -2.36407,-1.17804 -2.60495,-1.20394 -0.27414,-0.0295 -0.88233,0.0973 -0.80978,-0.16875 0.005,-0.019 3.73808,-1.1494 4.24492,-0.59801 0.44016,0.47887 -0.78933,3.40754 -0.88228,3.8757 -0.0979,0.49281 -0.25993,3.21452 -0.94459,3.0172"
       id="path14199" />
  </g>
  <g
     inkscape:groupmode="layer"
     id="layer6"
     inkscape:label="Layer 6"
     style="display:inline">
    <rect
       style="fill:none;fill-opacity:1;stroke:#000000;stroke-width:1.74784;stroke-dasharray:none;stroke-opacity:1"
       id="rect4587-3"
       width="140.83238"
       height="110.66144"
       x="256.80255"
       y="614.92999" />
    <text
       xml:space="preserve"
       style="font-size:9.26678px;text-align:center;text-anchor:middle;fill:#000000;fill-opacity:1;stroke:none;stroke-width:1.74784;stroke-dasharray:none;stroke-opacity:1"
       x="315.50137"
       y="629.00763"
       id="text5070-6"><tspan
         sodipodi:role="line"
         id="tspan5068-10"
         style="fill:#000000;fill-opacity:1;stroke:none;stroke-width:1.74784"
         x="315.50137"
         y="629.00763">склад</tspan></text>
    <rect
       style="fill:none;fill-opacity:1;stroke:#000000;stroke-width:0.639;stroke-linecap:butt;stroke-linejoin:miter;stroke-miterlimit:4.2;stroke-dasharray:none;stroke-opacity:1"
       id="rect18348-7-4"
       width="27.526196"
       height="13.355519"
       x="280.30908"
       y="644.8446" />
    <text
       xml:space="preserve"
       style="font-size:5.64444px;text-align:center;white-space:pre;shape-inside:url(#rect18348-7-4);display:inline;fill:#000000;fill-opacity:1;stroke:none;stroke-width:1.365;stroke-linecap:butt;stroke-linejoin:miter;stroke-miterlimit:4.2;stroke-dasharray:none;stroke-opacity:1"
       x="95.747009"
       y="119.88477"
       id="text18352-5-3"
       transform="translate(-0.180533,3.05415)"><tspan
         x="285.4024"
         y="649.97949"
         id="tspan18181">услуга</tspan></text>
    <rect
       style="fill:none;fill-opacity:1;stroke:#000000;stroke-width:0.864853;stroke-linecap:butt;stroke-linejoin:miter;stroke-miterlimit:4.2;stroke-dasharray:none;stroke-opacity:1"
       id="rect18348-78-3-6"
       width="33.854446"
       height="19.891787"
       x="326.48895"
       y="675.71698" />
    <text
       xml:space="preserve"
       style="font-size:5.64444px;text-align:center;white-space:pre;shape-inside:url(#rect18348-78-3-6);display:inline;fill:#000000;fill-opacity:1;stroke:none;stroke-width:1.365;stroke-linecap:butt;stroke-linejoin:miter;stroke-miterlimit:4.2;stroke-dasharray:none;stroke-opacity:1"
       x="95.747009"
       y="119.88477"
       id="text18352-4-6-3"
       transform="translate(-0.180533,3.05415)"><tspan
         x="328.94366"
         y="680.85253"
         id="tspan18183">выдача на </tspan><tspan
         x="334.12245"
         y="687.90807"
         id="tspan18185">складе</tspan></text>
    <path
       style="fill:none;fill-opacity:1;stroke:#000000;stroke-width:0.865;stroke-dasharray:none;stroke-opacity:1"
       d="m 311.75192,653.91077 c 3.14995,0.88945 4.46821,3.87665 6.76439,5.84615 2.72212,2.33482 5.38113,3.69798 7.22757,6.92923 0.23318,0.40806 1.2691,2.21279 1.26003,2.23491 -0.20034,0.48977 -3.16521,-1.13718 -3.42821,-1.23376 -0.2881,-0.10575 -0.4722,-0.25394 -0.71395,-0.43381 -0.0415,-0.0309 -0.15814,-0.13001 -0.11123,-0.10821 1.74479,0.81097 3.40363,1.77887 5.115,2.65155 0.40302,0.2055 1.07905,0.75811 1.30657,0.36708 0.74668,-1.28336 -1.13586,-3.77328 -1.30657,-5.10389"
       id="path14255" />
  </g>
  <g
     inkscape:groupmode="layer"
     id="layer7"
     inkscape:label="Layer 7"
     style="display:inline">
    <rect
       style="fill:none;fill-opacity:1;stroke:#000000;stroke-width:1.74784;stroke-dasharray:none;stroke-opacity:1"
       id="rect4587-6"
       width="140.83238"
       height="110.66144"
       x="688.34607"
       y="277.78699" />
    <text
       xml:space="preserve"
       style="font-size:9.26678px;text-align:center;text-anchor:middle;fill:#000000;fill-opacity:1;stroke:none;stroke-width:1.74784;stroke-dasharray:none;stroke-opacity:1"
       x="747.04486"
       y="291.86462"
       id="text5070-32"><tspan
         sodipodi:role="line"
         id="tspan5068-0"
         style="fill:#000000;fill-opacity:1;stroke:none;stroke-width:1.74784"
         x="747.04486"
         y="291.86462">азартная игра</tspan></text>
    <rect
       style="fill:none;fill-opacity:1;stroke:#000000;stroke-width:0.690029;stroke-linecap:butt;stroke-linejoin:miter;stroke-miterlimit:4.2;stroke-dasharray:none;stroke-opacity:1"
       id="rect18348-2"
       width="32.221241"
       height="13.30449"
       x="765.01831"
       y="307.38776" />
    <text
       xml:space="preserve"
       style="font-size:5.64444px;text-align:center;white-space:pre;shape-inside:url(#rect18348-2);display:inline;fill:#000000;fill-opacity:1;stroke:none;stroke-width:1.365;stroke-linecap:butt;stroke-linejoin:miter;stroke-miterlimit:4.2;stroke-dasharray:none;stroke-opacity:1"
       x="95.747009"
       y="119.88477"
       id="text18352-3"
       transform="translate(-0.18053,3.05415)"><tspan
         x="767.015"
         y="312.52441"
         id="tspan18187">менеджер</tspan></text>
    <rect
       style="fill:none;fill-opacity:1;stroke:#000000;stroke-width:0.639;stroke-linecap:butt;stroke-linejoin:miter;stroke-miterlimit:4.2;stroke-dasharray:none;stroke-opacity:1"
       id="rect18348-28"
       width="27.526196"
       height="13.355519"
       x="726.73267"
       y="352.01114" />
    <text
       xml:space="preserve"
       style="font-size:5.64444px;text-align:center;white-space:pre;shape-inside:url(#rect18348-28);display:inline;fill:#000000;fill-opacity:1;stroke:none;stroke-width:1.365;stroke-linecap:butt;stroke-linejoin:miter;stroke-miterlimit:4.2;stroke-dasharray:none;stroke-opacity:1"
       x="95.747009"
       y="119.88477"
       id="text18352-9"
       transform="translate(-0.18053,3.05415)"><tspan
         x="731.51297"
         y="357.14745"
         id="tspan18189">ставка</tspan></text>
    <path
       style="fill:none;fill-opacity:1;stroke:#000000;stroke-width:0.865;stroke-dasharray:none;stroke-opacity:1"
       d="m 770.01107,324.82168 c -0.42381,0.14533 -0.87492,0.22738 -1.27145,0.43595 -0.67117,0.35301 -4.11258,4.54314 -4.9824,5.42822 -2.20424,2.24287 -4.00309,4.66733 -6.01168,7.07067 -2.21292,2.64785 -4.73522,5.05677 -6.9991,7.66183 -0.52469,0.60376 -3.00048,4.48395 -3.56121,4.71157 -0.0626,0.0254 0.0124,-0.13531 0.0308,-0.20034 0.0868,-0.30771 0.30134,-0.94914 0.38309,-1.20761 0.44628,-1.41103 0.64918,-2.77781 0.88728,-4.22942 0.066,-0.40278 0.36333,-1.58279 0.20254,-1.20764 -0.2527,0.58968 -0.37721,4.04977 0.42273,3.74946 1.6588,-0.62272 2.59659,-1.88346 4.01476,-2.86877"
       id="path14257" />
    <rect
       style="fill:none;fill-opacity:1;stroke:#000000;stroke-width:0.639;stroke-linecap:butt;stroke-linejoin:miter;stroke-miterlimit:4.2;stroke-dasharray:none;stroke-opacity:1"
       id="rect18348-7-9"
       width="27.526196"
       height="13.355519"
       x="696.21075"
       y="310.75565" />
    <text
       xml:space="preserve"
       style="font-size:5.64444px;text-align:center;white-space:pre;shape-inside:url(#rect18348-7-9);display:inline;fill:#000000;fill-opacity:1;stroke:none;stroke-width:1.365;stroke-linecap:butt;stroke-linejoin:miter;stroke-miterlimit:4.2;stroke-dasharray:none;stroke-opacity:1"
       x="95.747009"
       y="119.88477"
       id="text18352-5-4"
       transform="translate(-0.18053,3.05415)"><tspan
         x="701.30377"
         y="315.8916"
         id="tspan18191">услуга</tspan></text>
    <path
       style="fill:none;fill-opacity:1;stroke:#000000;stroke-width:0.865;stroke-dasharray:none;stroke-opacity:1"
       d="m 737.94185,350.42834 c -3.8508,-0.82984 -1.90172,0.0516 -5.50211,-3.46183 -0.78407,-0.76515 -1.60526,-1.49455 -2.34678,-2.30103 -2.51759,-2.73817 -4.50215,-5.84996 -6.70637,-8.82668 -1.01727,-1.37383 -2.18135,-2.63435 -3.22738,-3.98907 -0.10131,-0.13124 -0.76944,-0.91792 -0.87945,-1.01786 -0.20087,-0.18243 -0.41778,-0.34959 -0.64961,-0.49061 -2.97259,-1.8083 -0.72887,-0.34229 -0.0423,1.07503 0.14692,0.30334 1.16514,2.20845 0.41857,1.52791 -0.56132,-0.51165 -1.09363,-0.97007 -1.47646,-1.64113 -0.60489,-1.06037 -1.36636,-2.55812 -1.00642,-3.8095 0.15105,-0.52509 1.24389,-0.1942 1.57139,-0.0377 1.2084,0.57729 2.24004,1.47595 3.48927,1.99911 0.74242,0.31091 1.5512,0.55269 2.34791,0.68847 1.36411,0.23249 0.61524,0.0829 0.0103,-0.33052"
       id="path17002" />
  </g>
  <g
     inkscape:groupmode="layer"
     id="layer8"
     inkscape:label="Layer 8"
     style="display:inline">
    <rect
       style="fill:none;fill-opacity:1;stroke:#000000;stroke-width:1.74784;stroke-dasharray:none;stroke-opacity:1"
       id="rect4587-61"
       width="140.83238"
       height="110.66144"
       x="663.46741"
       y="619.4057" />
    <text
       xml:space="preserve"
       style="font-size:9.26678px;text-align:center;text-anchor:middle;fill:#000000;fill-opacity:1;stroke:none;stroke-width:1.74784;stroke-dasharray:none;stroke-opacity:1"
       x="722.1662"
       y="633.48328"
       id="text5070-5"><tspan
         sodipodi:role="line"
         id="tspan5068-5"
         style="fill:#000000;fill-opacity:1;stroke:none;stroke-width:1.74784"
         x="722.1662"
         y="633.48328">проверка качества</tspan></text>
    <rect
       style="fill:none;fill-opacity:1;stroke:#000000;stroke-width:0.639;stroke-linecap:butt;stroke-linejoin:miter;stroke-miterlimit:4.2;stroke-dasharray:none;stroke-opacity:1"
       id="rect18348-71"
       width="27.526196"
       height="13.355519"
       x="748.66455"
       y="646.72198" />
    <text
       xml:space="preserve"
       style="font-size:5.64444px;text-align:center;white-space:pre;shape-inside:url(#rect18348-71);display:inline;fill:#000000;fill-opacity:1;stroke:none;stroke-width:1.365;stroke-linecap:butt;stroke-linejoin:miter;stroke-miterlimit:4.2;stroke-dasharray:none;stroke-opacity:1"
       x="95.747009"
       y="119.88477"
       id="text18352-7"
       transform="translate(-0.18053,3.05415)"><tspan
         x="752.756"
         y="651.85839"
         id="tspan18193">клиент</tspan></text>
    <rect
       style="fill:none;fill-opacity:1;stroke:#000000;stroke-width:0.639;stroke-linecap:butt;stroke-linejoin:miter;stroke-miterlimit:4.2;stroke-dasharray:none;stroke-opacity:1"
       id="rect18348-7-2"
       width="27.526196"
       height="13.355519"
       x="749.76703"
       y="703.38019" />
    <text
       xml:space="preserve"
       style="font-size:5.64444px;text-align:center;white-space:pre;shape-inside:url(#rect18348-7-2);display:inline;fill:#000000;fill-opacity:1;stroke:none;stroke-width:1.365;stroke-linecap:butt;stroke-linejoin:miter;stroke-miterlimit:4.2;stroke-dasharray:none;stroke-opacity:1"
       x="95.747009"
       y="119.88477"
       id="text18352-5-7"
       transform="translate(-0.18053,3.05415)"><tspan
         x="754.86041"
         y="708.5166"
         id="tspan18195">услуга</tspan></text>
    <rect
       style="fill:none;fill-opacity:1;stroke:#000000;stroke-width:0.864853;stroke-linecap:butt;stroke-linejoin:miter;stroke-miterlimit:4.2;stroke-dasharray:none;stroke-opacity:1"
       id="rect18348-78-3-1"
       width="33.854446"
       height="19.891787"
       x="693.67035"
       y="647.27124" />
    <text
       xml:space="preserve"
       style="font-size:5.64444px;text-align:center;white-space:pre;shape-inside:url(#rect18348-78-3-1);display:inline;fill:#000000;fill-opacity:1;stroke:none;stroke-width:1.365;stroke-linecap:butt;stroke-linejoin:miter;stroke-miterlimit:4.2;stroke-dasharray:none;stroke-opacity:1"
       x="95.747009"
       y="119.88477"
       id="text18352-4-6-0"
       transform="translate(-0.18053,3.05415)"><tspan
         x="697.36427"
         y="652.40722"
         id="tspan18197">проверка </tspan><tspan
         x="698.29277"
         y="659.46276"
         id="tspan18199">качества</tspan></text>
    <path
       style="fill:none;fill-opacity:1;stroke:#000000;stroke-width:0.865;stroke-dasharray:none;stroke-opacity:1"
       d="m 767.00697,662.6308 c -0.17643,0.41796 -0.40662,0.81709 -0.52925,1.25386 -0.44731,1.59303 0.16687,5.55969 0.30022,7.19701 0.48289,5.92878 1.27281,11.85921 1.9217,17.77452 0.19309,1.76006 0.29805,6.90584 0.93535,8.18047 0.0222,0.0443 -0.0336,-0.0945 -0.0625,-0.13473 -0.0988,-0.13755 -0.20529,-0.26945 -0.30792,-0.40415 -0.1235,-0.20627 -0.23489,-0.42023 -0.37049,-0.61875 -0.8228,-1.20476 -2.11789,-2.75868 -3.20059,-3.73756 -0.12808,-0.11581 0.29602,0.17944 0.43207,0.2858 0.35515,0.27763 0.70741,0.56013 1.04023,0.86413 0.88442,0.80786 2.13781,2.27992 3.53547,2.19885 0.61854,-0.0359 0.84577,-4.70863 0.9344,-5.4514 0.0759,-0.63648 0.60473,-1.66864 -0.0962,0.15013"
       id="path14259" />
    <path
       style="fill:none;fill-opacity:1;stroke:#000000;stroke-width:0.865;stroke-dasharray:none;stroke-opacity:1"
       d="m 755.52778,700.88584 c -0.82103,-0.53969 -1.22169,-1.44547 -1.86976,-2.13436 -0.56716,-0.60293 -1.55292,-1.08498 -2.19498,-1.56374 -1.19219,-0.88898 -2.39527,-1.84653 -3.44694,-2.8965 -2.10415,-2.10082 -3.99402,-4.43847 -5.97776,-6.64946 -1.49111,-1.6619 -3.13669,-3.1931 -4.6296,-4.85574 -0.64915,-0.72292 -1.20533,-1.52722 -1.89571,-2.21424 -0.86746,-0.86318 -1.89061,-1.59898 -2.80318,-2.42017 -2.24002,-2.01568 -4.61743,-3.92086 -6.25973,-6.47526 -0.0871,-0.13559 -0.80253,-0.75239 -0.80253,-0.8805 0,-0.43059 0.36875,0.77819 0.55523,1.16628 0.32348,0.67315 0.43373,1.06807 0.81121,1.71387 1.19523,2.04467 2.83009,3.78608 3.4739,6.10285 0.73655,2.65062 -0.44228,-0.77706 -0.70538,-1.23076 -0.45947,-0.79243 -1.11516,-1.58494 -1.68402,-2.30855 -0.47278,-0.60145 -0.94215,-1.20385 -1.41938,-1.80141 -0.19392,-0.24284 -0.84648,-0.52541 -0.5995,-0.71403 0.56545,-0.43178 6.2597,1.78279 7.16812,2.16614 0.4458,0.18812 0.97211,0.32425 1.36647,0.61106 0.0725,0.0527 0.44032,0.49717 0.49366,0.45227 0.059,-0.0497 -0.1524,-0.0346 -0.22037,-0.0712 -0.25363,-0.1365 -0.49398,-0.29639 -0.74097,-0.44458"
       id="path14261" />
  </g>
  <g
     inkscape:groupmode="layer"
     id="layer9"
     inkscape:label="Layer 9"
     style="display:inline">
    <rect
       style="fill:none;fill-opacity:1;stroke:#000000;stroke-width:1.74784;stroke-dasharray:none;stroke-opacity:1"
       id="rect4587-5"
       width="140.83238"
       height="110.66144"
       x="635.58014"
       y="908.45697" />
    <text
       xml:space="preserve"
       style="font-size:9.26678px;text-align:center;text-anchor:middle;fill:#000000;fill-opacity:1;stroke:none;stroke-width:1.74784;stroke-dasharray:none;stroke-opacity:1"
       x="694.27893"
       y="922.53461"
       id="text5070-4"><tspan
         sodipodi:role="line"
         id="tspan5068-7"
         style="fill:#000000;fill-opacity:1;stroke:none;stroke-width:1.74784"
         x="694.27893"
         y="922.53461">расчет с клиентом</tspan></text>
    <rect
       style="fill:none;fill-opacity:1;stroke:#000000;stroke-width:0.639;stroke-linecap:butt;stroke-linejoin:miter;stroke-miterlimit:4.2;stroke-dasharray:none;stroke-opacity:1"
       id="rect18348-22"
       width="27.526196"
       height="13.355519"
       x="664.9574"
       y="942.11536" />
    <text
       xml:space="preserve"
       style="font-size:5.64444px;text-align:center;white-space:pre;shape-inside:url(#rect18348-22);display:inline;fill:#000000;fill-opacity:1;stroke:none;stroke-width:1.365;stroke-linecap:butt;stroke-linejoin:miter;stroke-miterlimit:4.2;stroke-dasharray:none;stroke-opacity:1"
       x="95.747009"
       y="119.88477"
       id="text18352-61"
       transform="translate(-0.18053,3.05415)"><tspan
         x="669.04897"
         y="947.25097"
         id="tspan18201">клиент</tspan></text>
    <rect
       style="fill:none;fill-opacity:1;stroke:#000000;stroke-width:0.639;stroke-linecap:butt;stroke-linejoin:miter;stroke-miterlimit:4.2;stroke-dasharray:none;stroke-opacity:1"
       id="rect18348-7-0"
       width="27.526196"
       height="13.355519"
       x="663.30029"
       y="987.91382" />
    <text
       xml:space="preserve"
       style="font-size:5.64444px;text-align:center;white-space:pre;shape-inside:url(#rect18348-7-0);display:inline;fill:#000000;fill-opacity:1;stroke:none;stroke-width:1.365;stroke-linecap:butt;stroke-linejoin:miter;stroke-miterlimit:4.2;stroke-dasharray:none;stroke-opacity:1"
       x="95.747009"
       y="119.88477"
       id="text18352-5-6"
       transform="translate(-0.18053,3.05415)"><tspan
         x="668.39362"
         y="993.0498"
         id="tspan18203">услуга</tspan></text>
    <rect
       style="fill:none;fill-opacity:1;stroke:#000000;stroke-width:0.864853;stroke-linecap:butt;stroke-linejoin:miter;stroke-miterlimit:4.2;stroke-dasharray:none;stroke-opacity:1"
       id="rect18348-78-3"
       width="33.854446"
       height="19.891787"
       x="717.23407"
       y="961.86243" />
    <text
       xml:space="preserve"
       style="font-size:5.64444px;text-align:center;white-space:pre;shape-inside:url(#rect18348-78-3);display:inline;fill:#000000;fill-opacity:1;stroke:none;stroke-width:1.365;stroke-linecap:butt;stroke-linejoin:miter;stroke-miterlimit:4.2;stroke-dasharray:none;stroke-opacity:1"
       x="95.747009"
       y="119.88477"
       id="text18352-4-6"
       transform="translate(-0.18053,3.05415)"><tspan
         x="724.0463"
         y="966.99902"
         id="tspan18205">инвойс </tspan><tspan
         x="722.90613"
         y="974.05456"
         id="tspan18207">клиента</tspan></text>
    <path
       style="fill:none;fill-opacity:1;stroke:#000000;stroke-width:0.865;stroke-dasharray:none;stroke-opacity:1"
       d="m 695.57571,950.02804 c 0.79788,0.89818 1.71765,1.60181 2.70769,2.25951 3.34653,2.22319 6.83501,4.05697 10.53426,5.57586 1.23843,0.5085 2.40217,1.1721 3.64027,1.67042 0.59899,0.24109 1.4238,0.43937 1.40813,0.411 -0.74956,-1.35861 -2.58733,-1.84708 -3.53261,-2.96113 -0.0355,-0.0419 0.10705,0.0251 0.16148,0.0323 0.45241,0.0603 0.57822,0.045 1.03923,0.18494 0.42667,0.12957 0.80505,0.2645 1.16546,0.52451 0.38156,0.27525 2.501,2.50724 2.39456,3.04236 -0.37732,1.89685 -4.83031,1.45669 -6.02504,1.22714"
       id="path14263" />
    <path
       style="fill:none;fill-opacity:1;stroke:#000000;stroke-width:0.865;stroke-dasharray:none;stroke-opacity:1"
       d="m 714.33186,972.80708 c -1.70606,0.0669 -2.9538,1.26439 -4.4828,1.83187 -3.36386,1.24848 -6.79265,2.70766 -9.89817,4.52686 -1.93675,1.1345 -3.75256,2.43874 -5.7031,3.55806 -0.32977,0.18923 -3.27657,2.28227 -3.32613,2.25949 -0.0469,-0.0214 0.18132,-0.12258 0.56462,-0.69379 0.44255,-0.65947 0.67855,-1.41481 0.93258,-2.15479 0.22709,-0.66152 0.83177,-1.06527 0.79851,-0.97565 -0.14189,0.38227 -1.11011,2.03493 -0.81613,2.45229 0.64347,0.91342 4.96591,-0.86416 5.75593,-0.95213"
       id="path14265" />
    <path
       style="fill:#000080;fill-opacity:1;stroke:#352ca5;stroke-width:0.865;stroke-dasharray:none;stroke-opacity:1"
       d="m 676.45065,957.56496 c 1.12577,5.18123 2.16834,10.39032 3.19206,15.59735 0.18246,0.92794 0.37058,1.85491 0.50202,2.79183 0.0514,0.36639 0.0737,0.54932 0.10764,0.91204 0.0108,0.11681 0.17997,0.34639 0.0626,0.34639 -0.59314,0 -1.50018,-0.4632 -2.008,-0.77403 -0.37512,-0.22961 -0.75358,-0.7537 -0.64587,-0.4844 0.22645,0.5661 1.13048,1.50717 1.46198,1.93659 0.26231,0.33978 1.98789,2.21332 2.65388,1.47666 0.57115,-0.6318 0.43153,-4.803 0.49318,-5.7295 0.0558,-0.83904 0.0608,-1.36339 0.18791,-1.15374 0.20883,0.3446 -0.11875,1.56025 -0.15267,1.97768"
       id="path14267" />
  </g>
  <g
     inkscape:groupmode="layer"
     id="layer10"
     inkscape:label="Layer 10">
    <path
       style="fill:none;fill-opacity:1;stroke:#352ca5;stroke-width:0.865;stroke-dasharray:none;stroke-opacity:1"
       d="m 361.81231,314.27811 c 0.88572,-9.28801 -3.72711,15.68995 -7.50629,5.47471 -1.46251,-3.95325 -0.81171,-8.61814 -4.30667,-11.77423 -0.32232,-0.29104 -0.78551,-0.13491 -0.71411,0.40966 0.26014,1.98461 3.05271,11.17473 4.11295,10.49549 1.91669,-1.22788 7.10655,-23.89333 8.21483,-27.15765 4.31816,-12.71839 12.14877,-28.11366 20.99654,-38.38939 8.51628,-9.89075 19.71728,-16.04055 30.32953,-23.09452 3.05078,-2.02784 5.74014,-4.72328 9.17803,-6.11683 5.98847,-2.42741 12.22036,-4.56697 17.6032,-8.30894 37.72652,-26.22607 58.17074,-67.39348 71.45907,-110.05325 2.43566,3.40808 5.03462,6.70519 7.30699,10.22425 3.40333,5.27048 2.04891,13.0018 3.39886,18.67158 2.07934,8.73322 6.71553,16.95077 8.51929,25.69625 2.66016,12.89774 1.62428,26.41251 1.47247,39.48543 -0.1745,15.02593 3.40605,27.50998 5.26989,42.04288 0.81005,6.31623 1.39008,12.14564 3.34904,18.25641 3.77971,11.79044 11.95256,21.45493 17.65302,32.27254 3.29993,6.26219 6.68154,12.63042 9.78694,18.98711 2.20408,4.5117 3.18512,9.2958 4.76615,14.01614 1.32436,3.954 4.29839,7.46328 6.3438,11.04352 2.92183,5.11428 3.60931,10.87697 6.18327,16.06984 1.18738,2.39551 3.21991,4.37926 4.36205,6.79772 1.21819,2.5795 1.20687,5.6111 2.43566,8.30893 7.31087,16.05112 13.12356,32.15221 17.19357,49.38862 2.98432,12.63851 2.33291,36.92339 -1.16801,49.89236 -2.02381,7.49713 -5.24079,14.64621 -7.50627,22.04829 -0.18862,0.61627 -1.17398,1.17093 -0.85802,1.73264 1.42806,2.53878 -2.43205,-3.10657 -3.44868,-5.65738 -1.11305,-2.79276 -0.46243,-6.99198 0.9632,-9.72605 0.4931,-0.94568 0.15941,2.14503 0,3.19958 -0.37696,2.4937 -2.12761,10.38951 1.21783,12.00118 2.72759,1.31402 10.73841,-13.91162 10.54532,-14.10471 -0.71639,-0.71638 -2.06366,0.22963 -3.03905,-0.0443"
       id="path16854" />
    <path
       style="fill:none;fill-opacity:1;stroke:#352ca5;stroke-width:0.865;stroke-dasharray:none;stroke-opacity:1"
       d="m 274.93108,369.68945 c 4.79263,2.16107 0.37835,0.72316 2.33603,-6.84752 0.15732,-0.60846 2.04354,-6.12539 1.5721,-6.24969 -2.53047,-0.66712 -11.84058,2.83982 -9.1282,1.00195 0.72996,-0.49463 9.63073,-2.1598 8.7241,-0.54803 -1.15435,2.05218 -4.04624,3.36071 -5.57987,5.52452 -4.08993,5.77051 -7.36849,12.12681 -11.2096,18.07374 -3.32821,5.15281 -5.59541,10.93063 -9.02856,16.02555 -9.2631,13.74674 -18.95402,27.24385 -28.70762,40.62023 -2.45243,3.36333 -5.73635,6.04097 -8.31447,9.31641 -7.47136,9.49216 -14.82643,19.3244 -23.63701,27.61157 -12.38056,11.64508 -31.07523,17.03906 -46.60975,22.45794 30.81509,10.36778 63.42209,5.31735 95.14589,3.38225 7.83682,-0.47803 16.07792,0.93755 23.94146,1.14034 7.48883,0.19312 14.94585,-0.60992 22.41918,-0.7307 4.74274,-0.0766 9.26295,0.89517 13.94418,-0.22696 14.59736,-3.49913 28.39644,-11.26559 42.24769,-16.88912 12.71529,-5.16233 25.66423,-9.06678 38.04064,-14.47005 11.90182,-5.19608 22.22457,-13.95005 34.43696,-18.71586 6.7725,-2.64293 13.92364,-3.50173 20.94671,-5.1149 16.18072,-3.71664 32.70033,0.65776 48.69113,2.14781 2.67624,0.24938 5.13712,-0.95765 7.76092,-0.95765 5.63125,0 11.17508,1.18539 16.73965,1.27872 5.44379,0.0913 41.2044,4.61024 44.67782,2.55191 0.15657,-0.0928 -10.03394,-5.18991 -9.5323,-4.74401 4.05839,3.60746 10.67019,3.61422 14.9129,6.43237 0.38355,0.25476 1.31748,-0.0453 1.31748,0.41517 0,0.39215 -1.01283,0.71622 -1.26766,0.81927 -2.76061,1.11631 -5.79448,0.66164 -8.46946,1.59978 -1.42832,0.50093 -3.99771,1.22891 -5.02079,1.22891"
       id="path16856" />
    <path
       style="fill:none;fill-opacity:1;stroke:#352ca5;stroke-width:0.865;stroke-dasharray:none;stroke-opacity:1"
       d="m 285.89157,631.56208 c 7.32978,-8.07826 -0.10522,12.79403 -0.40965,12.599 -1.52884,-0.9794 -1.81253,-4.16374 -2.83975,-5.61308 -0.7208,-1.01698 -3.22632,-2.4571 -3.34904,-3.69779 -0.06,-0.60619 0.78425,0.12037 0.86355,0.18267 1.11265,0.87368 5.86592,7.7111 6.59291,7.7111 1.38023,0 -1.25862,-2.48648 -1.57213,-3.83064 -0.91297,-3.91449 -2.21017,-7.65993 -3.03903,-11.59709 -4.6818,-22.23852 -13.14325,-44.29254 -30.93847,-59.47447 -8.14147,-6.94586 -22.45959,-13.97727 -32.76521,-16.66216 -4.60164,-1.19885 -9.14391,-1.52476 -13.74489,-3.01135 -13.35556,-4.31522 -39.4142,-13.60403 -49.90897,-22.77901 -1.84059,-1.60912 -3.12481,-3.8608 -4.92115,-5.52453 -2.9926,-2.77167 -7.17121,-4.85058 -9.38284,-8.3975 -1.72522,-2.76683 -2.83791,-5.87143 -4.25687,-8.80714 3.61659,0.78975 7.2901,1.35331 10.84978,2.36925 2.68423,0.76609 4.61639,4.03046 6.95271,5.48024 8.51286,5.28262 19.59746,10.33046 29.46599,11.9569 22.63087,3.72981 45.90058,6.10047 68.82411,3.51511 23.89981,-2.69547 48.14837,-7.37432 72.32814,-4.69973 7.28971,0.80634 13.17472,3.82978 20.03334,5.56881 20.37375,5.16586 38.48648,15.79399 58.57771,22.00401 20.02363,6.18912 39.59642,14.03658 59.6959,19.71781 10.97369,3.10177 23.28682,3.86846 33.93323,8.21483 22.60757,9.22948 43.28292,22.89023 63.24422,36.74531 15.92661,11.0546 28.91315,26.51832 43.92498,38.79901 10.09881,8.26151 23.27617,11.9255 34.58643,18.02945 8.63373,4.65947 16.35815,10.99567 25.0043,15.70449 4.43054,2.41294 9.48304,3.50911 14.20435,5.15918 12.86199,4.4952 23.62609,12.29555 37.786,12.6876 5.55046,0.15367 11.27003,0.0433 16.83376,-0.18268 2.33076,-0.0947 4.67894,-0.86308 7.00253,-0.77498 0.33743,0.0128 1.32158,-0.13714 1.01302,0 -1.72734,0.7677 -5.23319,-1.81997 -6.64272,-2.60173 -0.92525,-0.51317 -3.82094,-0.39082 -2.99476,-1.05177 2.79053,-2.23243 13.28505,7.02072 15.21736,9.63195 1.0465,1.41418 -11.96772,4.47 -13.03634,4.79382"
       id="path16858" />
    <path
       style="fill:none;fill-opacity:1;stroke:#352ca5;stroke-width:0.865;stroke-dasharray:none;stroke-opacity:1"
       d="m 138.76101,486.10805 c 0.62783,-4.47043 -0.21921,-9.33998 0.52536,-13.86155 1.43667,-8.72447 6.81711,-16.20295 8.21994,-24.73256 1.94954,-11.85375 4.88353,-24.0199 6.14273,-35.9188 0.97427,-9.20639 0.55263,-18.02601 2.66724,-27.125 3.73071,-16.05293 11.12953,-31.04256 15.40531,-46.92722 2.0355,-7.56192 1.63981,-15.66767 3.54824,-23.18879 2.46103,-9.69894 6.46565,-18.77134 8.1472,-28.72534 1.57893,-9.34651 2.06638,-17.99466 4.74445,-27.18965 10.0738,-34.58787 30.30627,-62.74163 47.83245,-93.70894 4.96555,-8.77372 8.30903,-18.20459 13.62716,-26.93102 19.37073,-31.78509 45.33495,-61.018952 73.24397,-85.505161 6.18413,-5.425701 11.17301,-12.009395 18.21802,-16.464129 11.31448,-7.154396 30.09018,-8.649205 42.7243,-11.865166 34.36424,-8.747261 72.31931,-19.1723341 107.97461,-12.32587 14.04527,2.696944 25.12062,12.22364 38.50521,16.658111 16.5387,5.479465 34.06283,7.724142 50.43506,13.934294 12.18853,4.623247 22.23643,12.386146 33.1788,19.058623 4.50572,2.747512 9.11767,4.852765 13.17453,8.333097 5.34106,4.582011 6.94648,12.056356 11.40447,17.458282 7.43939,9.014621 19.09236,25.386339 24.14254,35.724819 8.33421,17.06137 14.85556,61.21846 16.36715,82.1105 0.27675,3.82541 2.23038,7.45326 2.89353,11.19431 2.43679,13.74662 5.35316,27.79784 5.84367,41.7948 0.12761,3.64096 7.18619,43.18786 9.26259,44.45395 1.42523,0.86905 -8.53234,-15.9716 -8.59174,-15.86601 -0.63423,1.12753 4.82267,5.96972 5.25365,6.59535 1.27712,1.85388 3.80211,12.70408 7.25813,11.6631 1.92942,-0.58116 3.58793,-8.99985 4.67169,-10.79018 1.45381,-2.40155 6.94645,-7.2149 1.92366,-6.46605"
       id="path17006" />
    <path
       style="fill:none;fill-opacity:1;stroke:#352ca5;stroke-width:0.865;stroke-dasharray:none;stroke-opacity:1"
       d="m 127.48078,506.06184 c 0.45845,1.35692 0.0184,4.52917 1.37535,4.07072 1.3569,-0.45844 -1.98426,-5.3671 -1.37535,-4.07072 2.41507,5.14178 3.54422,10.61194 6.29974,15.57547 4.68837,8.44521 12.58575,14.21907 15.89557,23.56276 1.38041,3.89691 1.60973,7.91088 2.57285,11.9276 1.85097,7.71945 5.09608,18.26823 8.86864,25.25823 2.32988,4.31692 5.36614,7.69837 8.25606,11.59957 3.67226,4.95734 10.55964,17.72299 13.07373,23.66159 4.60135,10.86892 5.56963,22.72524 9.81321,33.7277 2.10967,5.46979 3.03809,11.23662 5.79386,16.49236 5.50378,10.4966 12.90091,20.25176 20.09672,29.6214 7.02549,9.14788 12.98739,19.14474 20.81996,27.70068 4.98977,5.45055 11.77815,10.08552 18.0337,13.95111 10.5806,6.53822 22.02013,10.82995 33.60518,15.18417 10.72771,4.03201 21.18074,8.8914 32.15475,12.28728 10.57342,3.27186 21.86946,6.26999 32.73177,8.37462 7.37462,1.42885 14.84458,2.1936 22.19928,3.74663 14.87831,3.14174 29.60436,6.87075 44.39457,10.3665 15.92262,3.76344 32.2135,5.86333 48.1254,9.64327 19.20881,4.56314 38.24269,11.55571 55.43691,21.31399 24.10446,13.68004 42.07086,32.56907 57.42881,55.30649 2.75656,4.08109 4.44979,8.83163 7.20873,12.90378 3.29809,4.86794 7.6648,8.8686 11.22413,13.5559 2.77683,3.65686 4.7303,7.95507 7.31544,11.76557 3.11412,4.59026 7.15394,8.39573 10.31907,12.90775 3.03842,4.33136 4.82542,9.45502 7.53282,13.97879 1.72725,2.88602 3.85389,5.10981 6.01122,7.62764 5.67127,6.61903 10.63718,14.61842 15.93115,21.60646 1.94553,2.5681 6.23199,4.38158 7.53282,7.29962 0.40759,0.91434 -1.85608,-0.75621 -2.75072,-1.20539 -2.42538,-1.2178 -4.50439,-2.73347 -6.84514,-4.01146 -0.74157,-0.40486 -2.9111,-1.66878 -2.28039,-1.10659 2.79919,2.49491 7.43101,3.05729 10.71827,4.62796 2.63184,1.25756 7.2421,5.92145 4.56079,0.91297 -0.92541,-1.7286 -3.36924,-7.66186 -3.51349,-7.88853"
       id="path17010" />
    <path
       style="fill:none;fill-opacity:1;stroke:#000000;stroke-width:0.865;stroke-dasharray:none;stroke-opacity:1"
       d="m 125.05455,510.50787 c -1.93815,4.77769 -2.08973,3.49044 -1.87307,7.82357 0.2904,5.80814 1.76902,11.5656 2.43745,17.33212 0.89224,7.69728 0.61665,16.23046 0.22084,23.94513 -0.71046,13.84761 -3.54922,26.86032 -1.68495,40.77012 0.48244,3.59963 1.83461,6.95595 2.17572,10.58823 0.31245,3.32716 -0.28303,6.61506 0.26174,9.95021 0.98592,6.03592 3.1642,11.78923 3.03455,17.97418 -0.54245,25.87625 -2.87917,51.76115 -2.32295,77.66322 0.24063,11.20537 1.83076,22.51306 2.62149,33.69088 0.92407,13.06261 -1.98064,26.39923 0.86293,39.28965 4.60756,20.88689 15.46416,39.55412 25.44197,58.2372 9.89593,18.52977 20.10791,39.9362 38.5944,51.29699 10.66676,6.55521 21.00214,11.01003 33.80129,9.94611 8.32686,-0.69215 16.0498,-3.79328 24.50543,-3.54166 14.3146,0.42595 30.5692,6.59736 44.51628,5.76646 6.8085,-0.4056 13.33707,-2.94825 20.00676,-3.36989 3.29557,-0.20836 7.60773,1.99509 10.67819,1.31278 0.32152,-0.0715 -2.91124,-3.52118 -3.44353,-4.04471 -0.28736,-0.28265 -3.07202,-4.48442 -3.56211,-4.04879 -0.0712,0.0633 2.80549,1.69172 3.29629,1.99168 2.52346,1.54231 4.2613,3.97285 6.67028,5.56197 2.2171,1.46253 9.66676,3.14698 4.49865,5.56609 -1.84425,0.86326 -4.4368,1.11135 -6.44535,1.14509 -1.27593,0.0214 -2.54627,-0.1606 -3.82384,-0.2004"
       id="path17778" />
    <path
       style="fill:none;fill-opacity:1;stroke:#000000;stroke-width:0.865;stroke-dasharray:none;stroke-opacity:1"
       d="m 521.95539,108.79132 c 1.57689,6.9493 5.64655,13.13966 7.6287,19.93061 2.01346,6.89819 1.46426,14.53595 4.8236,21.08157 5.97312,11.63854 11.98618,23.19851 16.26954,35.67384 5.71982,16.65896 0.66551,34.57542 8.16078,51.17413 4.86823,10.78091 13.64065,19.37194 20.24296,29.092 5.97484,8.79629 11.08789,18.71785 16.47774,27.90056 8.67342,14.77692 13.37353,31.81051 21.14519,47.02143 5.81575,11.38272 13.82395,22.28233 21.51536,32.43498 16.29846,21.51398 31.12116,44.18173 47.21809,65.85891 14.58482,19.6409 31.9396,37.71271 49.43901,54.75426 17.48351,17.02604 37.29715,31.84657 52.41187,51.22042 13.68047,17.53544 14.99534,39.35904 21.88549,59.56628 2.35145,6.89628 6.40035,13.41075 11.17989,18.88376 2.83495,3.24625 7.43005,6.48909 9.3233,10.39908 1.32361,2.73351 -2.69922,22.1125 -2.59686,26.94625 0.80561,38.04216 -2.42998,77.1694 2.54482,114.98564 1.52532,11.59483 6.67007,22.47543 7.8427,34.19321 1.81843,18.17111 4.81478,37.54467 3.81722,55.8011 -0.86555,15.84122 -4.49686,30.7775 -7.42047,46.26377 -2.46399,13.05166 -0.85051,25.86358 -6.46616,38.20131 -7.37965,16.21325 -16.5899,31.27201 -24.16429,47.31065 -4.50492,9.53912 -9.76463,25.68282 -18.33432,32.33082 -2.86084,2.2194 -7.01178,2.8627 -10.27761,4.2973 -24.38657,10.7128 -49.95013,11.8327 -75.88787,8.6756 -16.92011,-2.0596 -33.91511,-1.6758 -50.81556,-4.8179 -6.40987,-1.1916 -12.35903,-3.7997 -18.60037,-5.5755 -23.16731,-6.5912 -45.58871,-15.6055 -67.93528,-24.6558 -10.03872,-4.0657 -21.41908,-9.67852 -28.66978,-18.02782 -5.5966,-6.44456 -10.39873,-17.77976 -19.82073,-18.50781 -16.65475,-1.28696 -38.88383,6.73719 -52.83406,15.11858 -9.74228,5.85322 -17.28158,15.38775 -28.18974,19.31755 -14.93473,5.3804 -31.88761,5.7852 -47.37426,8.5367 -7.52721,1.3374 -30.72852,2.8495 -37.78488,1.0931 -4.29453,-1.0689 -7.4404,-4.7629 -11.55004,-6.148 -6.28568,-2.1185 -17.45305,-3.5662 -21.0353,-9.63567 -7.24133,-12.26918 10.86763,-28.42667 8.53096,-35.4367 -1.21989,-3.65961 -10.08496,6.65456 -9.59514,7.29903 0.49689,0.65381 1.62735,-0.22212 2.4407,-0.33546 4.20971,-0.58667 11.01813,-15.50898 10.86178,-12.92077"
       id="path17780" />
  </g>
</svg>
