<?xml version="1.0" encoding="UTF-8" standalone="no"?>
<!-- Created with Inkscape (http://www.inkscape.org/) -->

<svg
   width="1000mm"
   height="1189mm"
   viewBox="0 0 1000 1189"
   version="1.1"
   id="svg4531"
   inkscape:version="1.2.2 (b0a8486541, 2022-12-01)"
   sodipodi:docname="1_week_model_communications.svg"
   xmlns:inkscape="http://www.inkscape.org/namespaces/inkscape"
   xmlns:sodipodi="http://sodipodi.sourceforge.net/DTD/sodipodi-0.dtd"
   xmlns="http://www.w3.org/2000/svg"
   xmlns:svg="http://www.w3.org/2000/svg">
  <sodipodi:namedview
     id="namedview4533"
     pagecolor="#ffffff"
     bordercolor="#999999"
     borderopacity="1"
     inkscape:showpageshadow="0"
     inkscape:pageopacity="0"
     inkscape:pagecheckerboard="0"
     inkscape:deskcolor="#d1d1d1"
     inkscape:document-units="mm"
     showgrid="false"
     inkscape:zoom="0.084493851"
     inkscape:cx="-1917.2993"
     inkscape:cy="2142.1677"
     inkscape:window-width="1596"
     inkscape:window-height="848"
     inkscape:window-x="0"
     inkscape:window-y="0"
     inkscape:window-maximized="1"
     inkscape:current-layer="layer2" />
  <defs
     id="defs4528">
    <rect
       x="827.55945"
       y="2479.6162"
       width="230.18707"
       height="339.92346"
       id="rect13046" />
  </defs>
  <g
     inkscape:label="Layer 1"
     inkscape:groupmode="layer"
     id="layer1"
     style="display:inline">
    <rect
       style="fill:none;fill-opacity:1;stroke:#000000;stroke-width:1.74784;stroke-dasharray:none;stroke-opacity:1"
       id="rect4587-93"
       width="140.83238"
       height="110.66144"
       x="591.79193"
       y="837.00244" />
    <text
       xml:space="preserve"
       style="font-size:9.26678px;text-align:center;text-anchor:middle;fill:#000000;fill-opacity:1;stroke:none;stroke-width:1.74784;stroke-dasharray:none;stroke-opacity:1"
       x="650.49072"
       y="851.08008"
       id="text5070-74"><tspan
         sodipodi:role="line"
         id="tspan5068-52"
         style="fill:#000000;fill-opacity:1;stroke:none;stroke-width:1.74784"
         x="650.49072"
         y="851.08008">расчет с воркером</tspan></text>
    <text
       xml:space="preserve"
       style="font-size:9.26678px;text-align:center;text-anchor:middle;fill:#000000;fill-opacity:1;stroke:none;stroke-width:1.74784;stroke-dasharray:none;stroke-opacity:1"
       x="302.98477"
       y="407.5755"
       id="text12351"><tspan
         sodipodi:role="line"
         id="tspan12349"
         style="stroke-width:1.74784"
         x="302.98477"
         y="407.5755"></tspan></text>
  </g>
  <g
     inkscape:groupmode="layer"
     id="layer2"
     inkscape:label="Layer 2"
     style="display:inline">
    <rect
       style="fill:none;fill-opacity:1;stroke:#000000;stroke-width:1.74784;stroke-dasharray:none;stroke-opacity:1"
       id="rect4587-9"
       width="140.83238"
       height="110.66144"
       x="201.78345"
       y="462.01993" />
    <text
       xml:space="preserve"
       style="font-size:9.26678px;text-align:center;text-anchor:middle;fill:#000000;fill-opacity:1;stroke:none;stroke-width:1.74784;stroke-dasharray:none;stroke-opacity:1"
       x="260.4823"
       y="476.09753"
       id="text5070-3"><tspan
         sodipodi:role="line"
         id="tspan5068-1"
         style="fill:#000000;fill-opacity:1;stroke:none;stroke-width:1.74784"
         x="260.4823"
         y="476.09753">заказ услуг</tspan></text>
    <rect
       style="display:inline;fill:none;fill-opacity:1;stroke:#000000;stroke-width:1.74784;stroke-dasharray:none;stroke-opacity:1"
       id="rect4587-9-1"
       width="140.83238"
       height="110.66144"
       x="87.161598"
       y="733.01086" />
    <text
       xml:space="preserve"
       style="font-size:9.26678px;text-align:center;text-anchor:middle;display:inline;fill:#000000;fill-opacity:1;stroke:none;stroke-width:1.74784;stroke-dasharray:none;stroke-opacity:1"
       x="145.86044"
       y="747.08844"
       id="text5070-3-7"><tspan
         sodipodi:role="line"
         id="tspan5068-1-7"
         style="fill:#000000;fill-opacity:1;stroke:none;stroke-width:1.74784"
         x="145.86044"
         y="747.08844">найм клиента</tspan></text>
    <text
       xml:space="preserve"
       style="font-size:4.5861px;text-align:center;text-anchor:middle;fill:none;fill-opacity:1;stroke:#352ca5;stroke-width:0.865;stroke-dasharray:none;stroke-opacity:1"
       x="54.874905"
       y="691.99976"
       id="text20478"><tspan
         sodipodi:role="line"
         id="tspan20476"
         style="stroke-width:0.865"
         x="54.874905"
         y="691.99976"></tspan></text>
    <path
       style="fill:none;fill-opacity:1;stroke:#2ca530;stroke-width:0.865;stroke-dasharray:none;stroke-opacity:1"
       d="m 186.40355,752.0945 c -0.0287,-0.15695 -0.99736,-4.19465 -0.87358,-5.70423 0.39507,-4.81817 1.3461,-9.63031 1.50498,-14.47898 0.63376,-19.34134 -1.01041,-38.80943 -1.14604,-58.19701 -0.0783,-11.18796 0.85665,-22.36663 1.02927,-33.55938 0.3018,-19.56774 -0.37942,-39.64779 4.8739,-58.69869 2.5207,-9.14116 7.04376,-16.5618 11.36954,-24.85384 2.32499,-4.45672 4.24271,-8.92091 7.09678,-13.08643 0.0479,-0.07 2.13188,-3.63704 2.01961,-3.63704 -3.57346,0 -11.75796,3.14047 -15.29633,4.59711 -3.73197,1.53633 -7.10348,2.80247 -6.93244,2.1753 0.21384,-0.78407 4.58319,-2.18784 5.5053,-2.67264 11.2517,-5.91558 20.06224,-12.8906 21.75306,4.45873 0.26862,2.75633 1.82981,6.10344 0.71357,8.70122"
       id="path20480" />
    <path
       style="fill:none;fill-opacity:1;stroke:#2ca530;stroke-width:0.865;stroke-dasharray:none;stroke-opacity:1"
       d="m 205.50127,824.34236 c 1.3738,2.1998 2.52413,4.55607 4.1214,6.59942 0.36769,0.47038 11.67068,12.1248 11.80634,12.26908 6.0718,6.45731 11.82269,13.39244 17.16026,20.46864 5.18058,6.86805 8.49199,14.73793 12.75776,22.14229 5.42511,9.41668 11.39042,18.58661 16.32562,28.2833 7.78551,15.29699 14.17315,32.1147 20.04914,48.24595 3.7083,10.18034 6.60003,20.67327 10.26243,30.88243 2.97732,8.29943 6.40331,16.44853 8.87421,24.92733 0.35388,1.2143 2.45347,6.8227 1.42714,8.3812 -0.24682,0.3748 -8.77382,-8.1352 -9.34992,-8.7358 -0.86309,-0.8998 -3.28081,-3.7539 -2.41749,-2.8543 2.57853,2.6869 11.54335,10.3962 15.65096,9.1293 0.67169,-0.2071 -3.09427,-25.82196 -3.72354,-28.02804"
       id="path23065" />
    <path
       style="fill:none;fill-opacity:1;stroke:#2ca530;stroke-width:0.865;stroke-dasharray:none;stroke-opacity:1"
       d="m 179.70464,817.63912 c -0.93701,1.92592 -2.0622,3.77116 -2.81103,5.77776 -1.13224,3.034 0.43126,8.71963 0.55356,11.87553 0.50559,13.04655 3.63023,25.8274 4.4371,38.87007 0.51154,8.26862 0.48896,16.55397 1.07252,24.81926 0.4049,5.73487 1.88416,11.35269 2.6121,17.04782 3.91028,30.59292 9.42552,60.78916 20.05347,89.86644 6.83629,18.7037 17.74626,35.3192 26.78264,52.921 2.67417,5.2089 5.78344,10.2043 8.12605,15.5817 5.83429,13.3927 6.39948,28.0025 19.81129,36.5867 4.72161,3.022 10.6842,4.049 15.96666,5.6696 5.35905,1.6441 10.91288,3.5996 16.40345,4.7096 16.95406,3.4273 40.07873,-3.4261 57.05963,-5.4923 8.79883,-1.0707 17.45596,-0.6225 26.22909,-1.3926 9.87538,-0.8669 19.78204,-2.2298 29.68017,-2.8153 12.99671,-0.7688 25.98617,-1.7964 38.87008,-3.7798 6.50005,-1.0006 12.91844,-2.6208 19.45666,-3.3862 8.97425,-1.0506 18.00456,-1.1488 26.90374,-2.8889 16.45639,-3.2179 32.67186,-7.6928 49.17143,-10.7338 26.8247,-4.9439 53.37228,-11.0252 79.96307,-17.0824 17.59801,-4.0088 35.57055,-7.1752 52.26356,-14.2671 20.49741,-8.7082 39.03316,-21.2742 58.36566,-32.2015 15.81981,-8.9418 31.99183,-17.4883 47.22966,-27.38366 15.43883,-10.02592 31.84564,-18.95318 46.39934,-30.277 18.61973,-14.48747 34.74712,-31.51986 50.48181,-48.99845 14.42842,-16.02756 28.21988,-32.32994 37.20941,-52.13816 5.89786,-12.9958 11.17944,-26.19454 15.29199,-39.86905 2.63375,-8.75734 4.62714,-17.6221 7.65035,-26.28101 10.00527,-28.65652 20.63541,-57.96412 21.47628,-88.61669 0.50324,-18.34451 -4.03243,-32.88543 -8.40282,-50.42558 -7.72263,-30.99406 -21.35711,-63.73008 -43.10827,-87.69123 -19.46997,-21.44821 -43.46041,-21.37296 -69.06487,-27.92002 -6.96442,-1.7808 -13.67865,-4.60896 -20.72381,-6.0978 -8.01079,-1.69288 -16.20745,-1.96104 -24.24838,-3.39053 -8.15136,-1.44912 -17.11618,-4.09977 -25.40309,-4.09977 -1.08315,0 2.06444,-0.6568 3.09213,-0.99901 2.29023,-0.76256 4.55486,-1.60957 6.85461,-2.3526 6.65737,-2.15104 13.71002,-3.9044 20.36916,-5.38422 0.69813,-0.15515 -1.43033,0.0602 -2.14071,0.14272 -2.01232,0.23373 -4.01109,0.13409 -6.02425,0.32001 -7.17883,0.66297 -15.78999,2.84515 -22.46664,5.60044 -2.65914,1.09738 -4.77578,2.32227 -7.01461,4.06519 -0.48556,0.37804 -2.03605,1.12522 -1.4228,1.17631 3.97749,0.33147 21.36574,5.22428 23.8116,8.41581 0.39082,0.50996 -0.69003,1.08501 -1.0682,1.60444"
       id="path23067" />
    <path
       style="fill:none;fill-opacity:1;stroke:#2ca530;stroke-width:0.865;stroke-dasharray:none;stroke-opacity:1"
       d="m 127.80002,763.26944 c -2.55011,-1.69961 -5.53216,-2.88404 -7.65033,-5.09879 -9.79171,-10.2381 -14.39077,-32.45591 -22.899097,-45.00679 C 90.046182,702.53642 82.225289,692.57896 76.36679,681.03593 70.519199,669.51441 65.156992,657.73239 59.32761,646.19645 53.026419,633.72682 46.498909,620.53223 43.996679,606.64738 c -1.93607,-10.74317 -3.09905,-22.28731 -2.5775,-33.23503 0.43352,-9.1 2.95777,-17.23938 5.46637,-25.89178 4.86243,-16.77096 9.94153,-33.36269 20.369174,-47.67942 3.245196,-4.45551 7.014413,-8.45521 10.42244,-12.76641 6.004816,-7.59614 10.889956,-16.46328 18.384149,-22.78666 6.461898,-5.45235 13.913168,-9.65343 20.684868,-14.69088 6.0115,-4.47194 11.40142,-9.70521 17.54949,-14.01623 9.24884,-6.4853 19.06455,-12.70529 28.6509,-18.68688 10.16972,-6.34558 21.23729,-11.12081 32.01549,-16.29535 8.79878,-4.2242 17.28996,-8.83925 26.42802,-12.33826 5.5063,-2.10838 11.24799,-3.28702 16.84025,-5.06418 21.68872,-6.89236 43.28994,-14.63132 65.97276,-17.68787 9.80825,-1.32167 19.72871,-2.66049 29.60233,-3.42513 5.40466,-0.41855 10.73491,0.10575 16.12667,-0.0692 5.5962,-0.18161 11.08292,-1.68971 16.55914,-2.67698 5.82941,-1.05095 11.70922,-1.99178 17.55381,-2.95807 2.36505,-0.39102 6.59166,-0.83089 6.57782,-0.85629 -0.22527,-0.41299 -18.12233,-9.41478 -15.80665,-9.41478 10.99015,0 20.27486,3.26398 30.26832,7.34759 1.50821,0.61632 4.3007,0.88715 5.43178,2.17532 0.22274,0.25366 -0.69741,0.0441 -0.99035,0.21191 -0.41506,0.23773 -3.39128,2.44745 -3.76678,2.74616 -2.84769,2.26526 -5.50722,4.91911 -8.63635,6.81133 -1.59811,0.96641 -12.24241,5.33805 -12.04419,3.71057"
       id="path24521" />
  </g>
  <g
     inkscape:groupmode="layer"
     id="layer3"
     inkscape:label="Layer 3"
     style="display:inline">
    <rect
       style="fill:none;fill-opacity:1;stroke:#000000;stroke-width:1.74784;stroke-dasharray:none;stroke-opacity:1"
       id="rect4587"
       width="140.83238"
       height="110.66144"
       x="559.56659"
       y="70.627617" />
    <text
       xml:space="preserve"
       style="font-size:9.26678px;text-align:center;text-anchor:middle;fill:#000000;fill-opacity:1;stroke:none;stroke-width:1.74784;stroke-dasharray:none;stroke-opacity:1"
       x="618.26538"
       y="84.705193"
       id="text5070"><tspan
         sodipodi:role="line"
         id="tspan5068"
         style="fill:#000000;fill-opacity:1;stroke:none;stroke-width:1.74784"
         x="618.26538"
         y="84.705193">регистрация воркера</tspan></text>
  </g>
  <g
     inkscape:groupmode="layer"
     id="layer4"
     inkscape:label="Layer 4"
     style="display:inline">
    <rect
       style="fill:none;fill-opacity:1;stroke:#000000;stroke-width:1.74784;stroke-dasharray:none;stroke-opacity:1"
       id="rect4587-4"
       width="140.83238"
       height="110.66144"
       x="639.70044"
       y="454.32928" />
    <text
       xml:space="preserve"
       style="font-size:9.26678px;text-align:center;text-anchor:middle;fill:#000000;fill-opacity:1;stroke:none;stroke-width:1.74784;stroke-dasharray:none;stroke-opacity:1"
       x="698.39923"
       y="468.40692"
       id="text5070-43"><tspan
         sodipodi:role="line"
         id="tspan5068-07"
         style="fill:#000000;fill-opacity:1;stroke:none;stroke-width:1.74784"
         x="698.39923"
         y="468.40692">выполнение заказа</tspan></text>
  </g>
  <g
     inkscape:groupmode="layer"
     id="layer5"
     inkscape:label="Layer 5"
     style="display:inline">
    <rect
       style="fill:none;fill-opacity:1;stroke:#000000;stroke-width:1.74784;stroke-dasharray:none;stroke-opacity:1"
       id="rect4587-94"
       width="140.83238"
       height="110.66144"
       x="402.39249"
       y="306.67722" />
    <text
       xml:space="preserve"
       style="font-size:9.26678px;text-align:center;text-anchor:middle;fill:#000000;fill-opacity:1;stroke:none;stroke-width:1.74784;stroke-dasharray:none;stroke-opacity:1"
       x="461.09137"
       y="320.75485"
       id="text5070-7"><tspan
         sodipodi:role="line"
         id="tspan5068-8"
         style="fill:#000000;fill-opacity:1;stroke:none;stroke-width:1.74784"
         x="461.09137"
         y="320.75485">матчинг</tspan></text>
  </g>
  <g
     inkscape:groupmode="layer"
     id="layer6"
     inkscape:label="Layer 6"
     style="display:inline">
    <rect
       style="fill:none;fill-opacity:1;stroke:#000000;stroke-width:1.74784;stroke-dasharray:none;stroke-opacity:1"
       id="rect4587-3"
       width="140.83238"
       height="110.66144"
       x="414.04489"
       y="643.57733" />
    <text
       xml:space="preserve"
       style="font-size:9.26678px;text-align:center;text-anchor:middle;fill:#000000;fill-opacity:1;stroke:none;stroke-width:1.74784;stroke-dasharray:none;stroke-opacity:1"
       x="472.74371"
       y="657.65497"
       id="text5070-6"><tspan
         sodipodi:role="line"
         id="tspan5068-10"
         style="fill:#000000;fill-opacity:1;stroke:none;stroke-width:1.74784"
         x="472.74371"
         y="657.65497">склад</tspan></text>
  </g>
  <g
     inkscape:groupmode="layer"
     id="layer7"
     inkscape:label="Layer 7"
     style="display:inline">
    <rect
       style="fill:none;fill-opacity:1;stroke:#000000;stroke-width:1.74784;stroke-dasharray:none;stroke-opacity:1"
       id="rect4587-6"
       width="140.83238"
       height="110.66144"
       x="202.05394"
       y="166.88531" />
    <text
       xml:space="preserve"
       style="font-size:9.26678px;text-align:center;text-anchor:middle;fill:#000000;fill-opacity:1;stroke:none;stroke-width:1.74784;stroke-dasharray:none;stroke-opacity:1"
       x="260.75272"
       y="180.96295"
       id="text5070-32"><tspan
         sodipodi:role="line"
         id="tspan5068-0"
         style="fill:#000000;fill-opacity:1;stroke:none;stroke-width:1.74784"
         x="260.75272"
         y="180.96295">азартная игра</tspan></text>
  </g>
  <g
     inkscape:groupmode="layer"
     id="layer8"
     inkscape:label="Layer 8"
     style="display:inline">
    <rect
       style="fill:none;fill-opacity:1;stroke:#000000;stroke-width:1.74784;stroke-dasharray:none;stroke-opacity:1"
       id="rect4587-61"
       width="140.83238"
       height="110.66144"
       x="653.25439"
       y="645.52557" />
    <text
       xml:space="preserve"
       style="font-size:9.26678px;text-align:center;text-anchor:middle;fill:#000000;fill-opacity:1;stroke:none;stroke-width:1.74784;stroke-dasharray:none;stroke-opacity:1"
       x="711.95319"
       y="659.60315"
       id="text5070-5"><tspan
         sodipodi:role="line"
         id="tspan5068-5"
         style="fill:#000000;fill-opacity:1;stroke:none;stroke-width:1.74784"
         x="711.95319"
         y="659.60315">проверка качества</tspan></text>
  </g>
  <g
     inkscape:groupmode="layer"
     id="layer9"
     inkscape:label="Layer 9"
     style="display:inline">
    <rect
       style="fill:none;fill-opacity:1;stroke:#000000;stroke-width:1.74784;stroke-dasharray:none;stroke-opacity:1"
       id="rect4587-5"
       width="140.83238"
       height="110.66144"
       x="263.06488"
       y="992.71454" />
    <text
       xml:space="preserve"
       style="font-size:9.26678px;text-align:center;text-anchor:middle;fill:#000000;fill-opacity:1;stroke:none;stroke-width:1.74784;stroke-dasharray:none;stroke-opacity:1"
       x="321.76364"
       y="1006.7922"
       id="text5070-4"><tspan
         sodipodi:role="line"
         id="tspan5068-7"
         style="fill:#000000;fill-opacity:1;stroke:none;stroke-width:1.74784"
         x="321.76364"
         y="1006.7922">расчет с клиентом</tspan></text>
  </g>
  <g
     inkscape:groupmode="layer"
     id="layer10"
     inkscape:label="Layer 10">
    <path
       style="fill:none;fill-opacity:1;stroke:#352ca5;stroke-width:0.865;stroke-dasharray:none;stroke-opacity:1"
       d="m 519.05465,342.92545 c 0.88572,-9.28801 -3.72711,15.68995 -7.50629,5.47471 -1.46251,-3.95325 -0.81171,-8.61814 -4.30667,-11.77423 -0.32232,-0.29104 -0.78551,-0.13491 -0.71411,0.40966 0.26014,1.98461 3.05271,11.17473 4.11295,10.49549 1.91669,-1.22788 7.10655,-23.89333 8.21483,-27.15765 4.31816,-12.71839 12.14877,-28.11366 20.99654,-38.38939 8.51628,-9.89075 19.71728,-16.04055 30.32953,-23.09452 3.05078,-2.02784 5.74014,-4.72328 9.17803,-6.11683 5.98847,-2.42741 12.22036,-4.56697 17.6032,-8.30894 37.72652,-26.22607 58.17074,-67.39348 71.45907,-110.05325 2.43566,3.40808 5.03462,6.70519 7.30699,10.22425 3.40333,5.27048 2.04891,13.0018 3.39886,18.67158 2.07934,8.73322 6.71553,16.95077 8.51929,25.69625 2.66016,12.89774 1.62428,26.41251 1.47247,39.48543 -0.1745,15.02593 3.40605,27.50998 5.26989,42.04288 0.81005,6.31623 1.39008,12.14564 3.34904,18.25641 3.77971,11.79044 11.95256,21.45493 17.65302,32.27254 3.29993,6.26219 6.68154,12.63042 9.78694,18.98711 2.20408,4.5117 3.18512,9.2958 4.76615,14.01614 1.32436,3.954 4.29839,7.46328 6.3438,11.04352 2.92183,5.11428 3.60931,10.87697 6.18327,16.06984 1.18738,2.39551 3.21991,4.37926 4.36205,6.79772 1.21819,2.5795 1.20687,5.6111 2.43566,8.30893 7.31087,16.05112 13.12356,32.15221 17.19357,49.38862 2.98432,12.63851 2.33291,36.92339 -1.16801,49.89236 -2.02381,7.49713 -5.24079,14.64621 -7.50627,22.04829 -0.18862,0.61627 -1.17398,1.17093 -0.85802,1.73264 1.42806,2.53878 -2.43205,-3.10657 -3.44868,-5.65738 -1.11305,-2.79276 -0.46243,-6.99198 0.9632,-9.72605 0.4931,-0.94568 0.15941,2.14503 0,3.19958 -0.37696,2.4937 -2.12761,10.38951 1.21783,12.00118 2.72759,1.31402 10.73841,-13.91162 10.54532,-14.10471 -0.71639,-0.71638 -2.06366,0.22963 -3.03905,-0.0443"
       id="path16854" />
    <path
       style="fill:none;fill-opacity:1;stroke:#352ca5;stroke-width:0.865;stroke-dasharray:none;stroke-opacity:1"
       d="m 432.17342,398.33679 c 4.79263,2.16107 0.37835,0.72316 2.33603,-6.84752 0.15732,-0.60846 2.04354,-6.12539 1.5721,-6.24969 -2.53047,-0.66712 -11.84058,2.83982 -9.1282,1.00195 0.72996,-0.49463 9.63073,-2.1598 8.7241,-0.54803 -1.15435,2.05218 -4.04624,3.36071 -5.57987,5.52452 -4.08993,5.77051 -7.36849,12.12681 -11.2096,18.07374 -3.32821,5.15281 -5.59541,10.93063 -9.02856,16.02555 -9.2631,13.74674 -18.95402,27.24385 -28.70762,40.62023 -2.45243,3.36333 -5.73635,6.04097 -8.31447,9.31641 -7.47136,9.49216 -14.82643,19.3244 -23.63701,27.61157 -12.38056,11.64508 -31.07523,17.03906 -46.60975,22.45794 30.81509,10.36778 63.42209,5.31735 95.14589,3.38225 7.83682,-0.47803 16.07792,0.93755 23.94146,1.14034 7.48883,0.19312 14.94585,-0.60992 22.41918,-0.7307 4.74274,-0.0766 9.26295,0.89517 13.94418,-0.22696 14.59736,-3.49913 28.39644,-11.26559 42.24769,-16.88912 12.71529,-5.16233 25.66423,-9.06678 38.04064,-14.47005 11.90182,-5.19608 22.22457,-13.95005 34.43696,-18.71586 6.7725,-2.64293 13.92364,-3.50173 20.94671,-5.1149 16.18072,-3.71664 32.70033,0.65776 48.69113,2.14781 2.67624,0.24938 5.13712,-0.95765 7.76092,-0.95765 5.63125,0 11.17508,1.18539 16.73965,1.27872 5.44379,0.0913 41.2044,4.61024 44.67782,2.55191 0.15657,-0.0928 -10.03394,-5.18991 -9.5323,-4.74401 4.05839,3.60746 10.67019,3.61422 14.9129,6.43237 0.38355,0.25476 1.31748,-0.0453 1.31748,0.41517 0,0.39215 -1.01283,0.71622 -1.26766,0.81927 -2.76061,1.11631 -5.79448,0.66164 -8.46946,1.59978 -1.42832,0.50093 -3.99771,1.22891 -5.02079,1.22891"
       id="path16856" />
    <path
       style="fill:none;fill-opacity:1;stroke:#352ca5;stroke-width:0.865;stroke-dasharray:none;stroke-opacity:1"
       d="m 309.94926,493.28054 c -1.04107,-2.03393 -2.26376,-3.98473 -3.1232,-6.1018 -1.25129,-3.08234 -0.42741,-8.15583 -0.8502,-11.4922 -2.1921,-17.29851 -3.74551,-34.82007 -6.51823,-52.03592 -4.67282,-29.01365 -11.40392,-58.1497 -17.69811,-86.84797 -1.54098,-7.02606 -4.10244,-13.55815 -5.29786,-20.74611 -1.00063,-6.01668 -3.45307,-11.62682 -4.45345,-17.69234 -1.1295,-6.84844 -1.04973,-15.92564 -3.81724,-22.27301 -1.48548,-3.407 -1.26862,-8.1236 -3.33719,-10.82708 -0.28738,-0.37558 -1.49161,-4.94234 -1.96067,-4.33777 -1.55867,2.00895 -2.12361,20.58622 -2.70099,24.08331 -0.8424,5.10233 -3.28465,9.9496 -2.27877,8.68132 2.28252,-2.87796 -4.41986,-26.89501 3.38924,-25.89938 3.46418,0.44167 6.02692,2.44129 8.21285,5.107 1.93377,2.3582 3.44617,5.7115 5.24581,8.20128 2.29284,3.17212 5.53443,5.00077 7.90053,7.91788 0.12028,0.14829 -3.86941,0.82724 -7.26432,1.42857 -9.3261,1.65192 -18.43012,3.7836 -25.48875,10.06365"
       id="path18579" />
    <path
       style="fill:none;fill-opacity:1;stroke:#352ca5;stroke-width:0.865;stroke-dasharray:none;stroke-opacity:1"
       d="m 316.46748,550.05906 c 2.88028,-1.65412 5.48095,-3.93903 8.64084,-4.96239 1.3507,-0.43744 2.8167,0.41889 4.18161,0.8097 11.65104,3.33608 14.09598,13.41319 20.67093,21.1799 3.2298,3.81521 8.29615,7.24908 11.9202,10.63043 17.93684,16.73569 39.11388,30.72021 54.05442,50.50901 4.46199,5.90992 5.87723,13.29677 10.06942,19.31755 3.11951,4.48024 14.02564,10.24204 15.20534,12.7762 2.08155,4.47148 -40.79244,-12.77978 -18.12034,-5.0029 2.67806,0.9186 20.29024,8.23465 22.30774,6.43725 1.01195,-0.90156 -1.5018,-2.25903 -2.17469,-3.43553 -1.22238,-2.1372 -2.2995,-4.35427 -3.44131,-6.53558 -3.10591,-5.93354 -5.35683,-21.81444 -4.87563,-9.62985"
       id="path18583" />
    <path
       style="fill:none;fill-opacity:1;stroke:#352ca5;stroke-width:0.865;stroke-dasharray:none;stroke-opacity:1"
       d="m 332.26275,535.32222 c 17.86925,7.53518 37.16735,11.27268 56.22331,14.59225 6.92483,1.20631 13.69712,1.21907 20.61309,2.71835 7.35462,1.59438 14.85986,1.96152 22.2036,3.58011 6.03793,1.33077 11.65413,3.9076 17.69812,5.19374 6.89834,1.46796 14.01915,1.47407 20.98325,2.48121 8.7612,1.26706 17.12426,4.44008 25.8589,5.91672 12.26769,2.07396 25.18687,2.99275 37.09662,6.81897 7.61454,2.44634 14.72551,6.17927 22.36554,8.58301 5.57694,1.75463 11.13978,2.79185 16.58186,5.05497 6.41961,2.66959 12.10133,6.84027 18.39217,9.78021 9.0184,4.21463 18.23267,7.65308 26.81322,12.7762 14.9226,8.90972 21.22522,17.05102 33.54541,28.57146 3.67046,3.43215 7.43325,6.45649 10.7519,10.25448 0.9126,1.04444 4.41184,2.85716 3.02487,2.85716 -1.42711,0 -5.31685,-4.2848 -6.14807,-5.05497 -10.46329,-9.69492 -8.51096,-10.68097 -5.82996,-22.22096 0.0698,-0.30051 0.4204,0.4658 0.68826,0.61887 6.97129,3.98359 10.16024,13.98997 12.50434,21.31869 0.5588,1.74707 1.64425,3.21149 2.38869,4.8641 0.14173,0.31467 0.4677,1.28064 0.26603,1.00058 -0.11588,-0.16095 -5.19289,0.78837 -7.31636,0.52631 -8.90288,-1.09871 -22.28686,-10.13193 -29.24815,-9.01679"
       id="path18585" />
    <path
       style="fill:none;fill-opacity:1;stroke:#352ca5;stroke-width:0.865;stroke-dasharray:none;stroke-opacity:1"
       d="m 299.08748,550.34248 c 1.55538,20.04661 14.4362,35.58982 22.94392,52.89188 5.52772,11.24169 9.9555,22.62272 14.41297,34.29153 3.65525,9.56879 6.01008,19.47408 9.6472,29.04572 4.96017,13.05346 12.39496,26.41246 19.60673,38.34014 7.93699,13.12711 18.76235,23.43756 27.34531,35.96301 7.59516,11.0839 13.99276,24.2583 24.26839,33.19264 10.76842,9.36281 23.16661,17.96148 35.92831,24.32042 8.14483,4.05845 16.92394,6.89036 24.85255,11.3534 10.79468,6.07637 21.20485,13.44335 31.05266,20.93699 4.57203,3.47906 8.78576,7.32128 13.99075,9.87276 17.88726,8.76824 33.58443,15.11528 53.41823,17.7386 1.6532,0.21865 3.32436,0.27842 4.97975,0.48003 13.19324,1.60687 0.61516,-12.91606 -2.91499,-11.78137 -1.35205,0.43458 2.41747,1.50527 3.70737,2.09947 2.71576,1.25106 5.71685,1.36438 8.21285,3.14635 3.33616,2.38178 4.82245,6.28224 7.21225,9.44475 5.31119,7.0285 1.13591,5.43637 -8.64084,11.30136 -4.61037,2.76572 -7.83021,5.94942 -12.55639,2.9092"
       id="path20332" />
    <path
       style="fill:none;fill-opacity:1;stroke:#352ca5;stroke-width:0.865;stroke-dasharray:none;stroke-opacity:1"
       d="m 265.17188,557.02263 c 3.20833,42.28544 22.55288,80.7344 33.06539,121.23206 4.25693,16.39908 8.36622,33.27431 11.44594,49.93063 2.10479,11.38359 0.61917,8.3403 3.49913,19.22502 2.46716,9.32452 6.29326,18.16232 8.64084,27.51304 7.99363,31.83954 15.42329,64.60167 19.12668,97.29332 0.93093,8.21772 1.18588,16.47807 2.49278,24.65589 1.19874,7.50104 3.52863,14.75608 4.87565,22.22675 0.8257,4.57938 0.98748,9.25808 2.11684,13.78254 2.59844,10.40998 5.65205,20.53222 7.73858,31.04689 1.41797,7.14558 -6.50599,14.8634 -0.63621,20.08098 2.4013,2.1345 -2.34152,-5.98652 -3.65529,-8.91844 -2.46334,-5.49741 -5.4268,-10.62112 -9.225,-15.30946 -1.67719,-2.07026 -6.28018,-5.07272 -7.09659,-7.58243 -1.00965,-3.10372 4.82201,4.44175 6.83633,7.00985 2.63694,3.36187 5.01136,6.85263 7.31059,10.44535 3.20274,5.00454 7.99388,8.95609 11.39388,13.11164 0.27713,0.33872 0.56115,-0.67527 0.79237,-1.04685 2.31876,-3.72626 1.59253,-21.2512 2.65471,-16.79006"
       id="path20334" />
    <path
       style="fill:none;fill-opacity:1;stroke:#352ca5;stroke-width:0.865;stroke-dasharray:none;stroke-opacity:1"
       d="m 691.65003,143.32067 c 4.98273,2.60621 10.38949,5.00003 14.41299,9.10932 10.9393,11.17265 17.19445,25.18812 24.43033,38.72763 7.44116,13.92368 14.64227,28.08154 22.3077,41.87396 17.34897,31.21605 36.28782,61.81202 49.23081,95.19383 6.06007,15.62979 7.1523,32.84974 11.97803,48.88381 3.23816,10.75915 8.48321,20.62795 12.08215,31.23774 3.34483,9.86068 5.76569,20.46949 8.05669,30.61888 9.21531,40.825 7.20723,82.90758 11.65416,124.23957 1.19255,11.08435 3.83482,21.84924 5.35569,32.85718 2.56532,18.56769 3.29811,37.98149 4.12957,56.70912 0.87209,19.6437 -2.6048,39.07785 -2.43494,58.61198 0.18812,21.63599 -1.52045,42.98509 -2.17469,64.57498 -0.27768,9.16329 0.29163,18.5366 -1.79871,27.56508 -3.17593,13.71733 -9.29693,26.90038 -13.83462,40.20246 -6.85043,20.08193 -16.2415,47.8154 -29.56623,64.43615 -8.84375,11.03135 -18.33941,21.2476 -27.39737,32.04747 -7.42952,8.85825 -13.18167,19.21256 -22.94392,26.0382 -8.18129,5.72024 -18.78682,7.22035 -27.71548,11.35341 -9.67935,4.48053 -18.79369,10.18746 -28.93583,13.63794 -7.25964,2.46981 -15.16536,3.49957 -22.57375,5.53496 -21.78108,5.98426 -43.06634,14.59556 -65.39047,18.45576 -27.64031,4.7795 -55.82796,5.2912 -83.6785,7.4841 -19.30691,1.5202 -38.80663,2.7267 -58.07409,4.4824 -7.15145,0.6516 -14.42439,1.8623 -21.62524,1.8623 -8.75292,0 -17.49901,-1.8468 -26.22907,-2.4349 -6.60479,-0.445 -14.24351,3.6561 -20.7172,1.6715 -0.16183,-0.05 5.60387,-4.349 6.14229,-4.627 6.1113,-3.1549 12.16696,-6.4184 18.12609,-9.8727 2.35961,-1.3679 5.08826,-2.2369 7.36264,-3.6727 0.48562,-0.3065 1.98655,-0.7966 1.43436,-0.9543 -4.64275,-1.3265 -30.28141,9.1527 -32.53906,14.6443 -0.17537,0.4266 12.79973,2.9462 13.72471,3.1001 10.15676,1.6895 20.37214,3.4165 30.57839,4.7715 1.20809,0.1604 2.94783,-0.4085 3.60325,0.6189 2.78845,4.3711 5.48799,7.7957 -1.22036,-0.4801"
       id="path20340" />
  </g>
</svg>
