<?xml version="1.0" encoding="UTF-8" standalone="no"?>
<!-- Created with Inkscape (http://www.inkscape.org/) -->

<svg
   width="841mm"
   height="1189mm"
   viewBox="0 0 841 1189"
   version="1.1"
   id="svg4531"
   inkscape:version="1.2.2 (b0a8486541, 2022-12-01)"
   sodipodi:docname="2_week_data_model_communications.svg"
   xmlns:inkscape="http://www.inkscape.org/namespaces/inkscape"
   xmlns:sodipodi="http://sodipodi.sourceforge.net/DTD/sodipodi-0.dtd"
   xmlns="http://www.w3.org/2000/svg"
   xmlns:svg="http://www.w3.org/2000/svg">
  <sodipodi:namedview
     id="namedview4533"
     pagecolor="#ffffff"
     bordercolor="#999999"
     borderopacity="1"
     inkscape:showpageshadow="0"
     inkscape:pageopacity="0"
     inkscape:pagecheckerboard="0"
     inkscape:deskcolor="#d1d1d1"
     inkscape:document-units="mm"
     showgrid="false"
     inkscape:zoom="0.66441316"
     inkscape:cx="2249.3534"
     inkscape:cy="493.66873"
     inkscape:window-width="1596"
     inkscape:window-height="848"
     inkscape:window-x="0"
     inkscape:window-y="0"
     inkscape:window-maximized="1"
     inkscape:current-layer="layer10" />
  <defs
     id="defs4528">
    <rect
       x="827.55944"
       y="2479.6161"
       width="230.18708"
       height="339.92347"
       id="rect13046" />
  </defs>
  <g
     inkscape:label="Layer 1"
     inkscape:groupmode="layer"
     id="layer1"
     style="display:inline">
    <rect
       style="fill:none;fill-opacity:1;stroke:#000000;stroke-width:1.74784;stroke-dasharray:none;stroke-opacity:1"
       id="rect4587-93"
       width="140.83238"
       height="110.66144"
       x="631.73724"
       y="32.499844" />
    <text
       xml:space="preserve"
       style="font-size:9.26678px;text-align:center;text-anchor:middle;fill:#000000;fill-opacity:1;stroke:none;stroke-width:1.74784;stroke-dasharray:none;stroke-opacity:1"
       x="690.4361"
       y="46.57748"
       id="text5070-74"><tspan
         sodipodi:role="line"
         id="tspan5068-52"
         style="fill:#000000;fill-opacity:1;stroke:none;stroke-width:1.74784"
         x="690.4361"
         y="46.57748">расчет с воркером</tspan></text>
    <text
       xml:space="preserve"
       style="font-size:9.26678px;text-align:center;text-anchor:middle;fill:#000000;fill-opacity:1;stroke:none;stroke-width:1.74784;stroke-dasharray:none;stroke-opacity:1"
       x="302.98477"
       y="407.5755"
       id="text12351"><tspan
         sodipodi:role="line"
         id="tspan12349"
         style="stroke-width:1.74784"
         x="302.98477"
         y="407.5755" /></text>
    <rect
       style="fill:none;fill-opacity:1;stroke:#000000;stroke-width:0.639;stroke-linecap:butt;stroke-linejoin:miter;stroke-miterlimit:4.2;stroke-dasharray:none;stroke-opacity:1"
       id="rect18348-9-1"
       width="27.526196"
       height="13.355519"
       x="647.79535"
       y="90.034149" />
    <text
       xml:space="preserve"
       style="font-size:5.64444px;text-align:center;white-space:pre;shape-inside:url(#rect18348-9-1);display:inline;fill:#000000;fill-opacity:1;stroke:none;stroke-width:1.365;stroke-linecap:butt;stroke-linejoin:miter;stroke-miterlimit:4.2;stroke-dasharray:none;stroke-opacity:1"
       x="95.747009"
       y="119.88477"
       id="text18352-2-4"
       transform="translate(-0.180533,3.05415)"><tspan
         x="651.72599"
         y="95.168939"
         id="tspan18556">воркер</tspan></text>
    <rect
       style="fill:none;fill-opacity:1;stroke:#000000;stroke-width:0.639;stroke-linecap:butt;stroke-linejoin:miter;stroke-miterlimit:4.2;stroke-dasharray:none;stroke-opacity:1"
       id="rect18348-73"
       width="27.526196"
       height="13.355519"
       x="663.8728"
       y="124.06357" />
    <text
       xml:space="preserve"
       style="font-size:5.64444px;text-align:center;white-space:pre;shape-inside:url(#rect18348-73);display:inline;fill:#000000;fill-opacity:1;stroke:none;stroke-width:1.365;stroke-linecap:butt;stroke-linejoin:miter;stroke-miterlimit:4.2;stroke-dasharray:none;stroke-opacity:1"
       x="95.747009"
       y="119.88477"
       id="text18352-6-9"
       transform="translate(-0.180533,3.05415)"><tspan
         x="669.64604"
         y="129.20019"
         id="tspan18558">бонус</tspan></text>
    <rect
       style="fill:none;fill-opacity:1;stroke:#000000;stroke-width:0.864853;stroke-linecap:butt;stroke-linejoin:miter;stroke-miterlimit:4.2;stroke-dasharray:none;stroke-opacity:1"
       id="rect18348-78"
       width="33.854446"
       height="19.891787"
       x="712.36603"
       y="91.607574" />
    <text
       xml:space="preserve"
       style="font-size:5.64444px;text-align:center;white-space:pre;shape-inside:url(#rect18348-78);display:inline;fill:#000000;fill-opacity:1;stroke:none;stroke-width:1.365;stroke-linecap:butt;stroke-linejoin:miter;stroke-miterlimit:4.2;stroke-dasharray:none;stroke-opacity:1"
       x="95.747009"
       y="119.88477"
       id="text18352-4"
       transform="translate(-0.180533,3.05415)"><tspan
         x="719.17814"
         y="96.743158"
         id="tspan18560">инвойс </tspan><tspan
         x="717.87709"
         y="103.79871"
         id="tspan18562">воркера</tspan></text>
    <path
       style="fill:none;fill-opacity:1;stroke:#000000;stroke-width:0.865;stroke-dasharray:none;stroke-opacity:1"
       d="m 677.49991,96.729506 c 0.59095,-0.19711 1.16615,-0.44995 1.77284,-0.59129 1.5961,-0.37184 3.56426,0.29446 5.13882,0.55888 2.63242,0.44204 5.29275,0.82288 7.91056,1.3289 0.74758,0.14449 1.44217,0.40248 2.20404,0.48617 2.11537,0.23238 4.35215,0.11221 6.453,0.5579 0.21481,0.0456 5.33082,1.045924 5.46195,0.81814 0.0815,-0.1416 -0.69821,-1.08664 -0.8005,-1.20613 -0.48392,-0.56533 -1.05452,-1.08135 -1.71881,-1.42613 -0.1597,-0.0829 -0.45966,-0.46278 -0.45966,-0.28286 0,0.27178 1.35186,0.909 1.57541,1.12559 0.75239,0.72895 0.84828,1.64904 1.45759,2.445654 0.31483,0.41164 1.41994,0.79774 1.92606,1.0696 0.29437,0.15812 -1.35858,0.52261 -1.50275,0.55004 -1.11901,0.21294 -2.21959,0.54505 -3.28542,0.95565 -0.75207,0.28975 -1.53442,0.75618 -1.50275,0.70522 0.0631,-0.10152 0.0904,-0.22132 0.13555,-0.33197"
       id="path13419" />
    <path
       style="fill:none;fill-opacity:1;stroke:#000000;stroke-width:0.865;stroke-dasharray:none;stroke-opacity:1"
       d="m 664.75697,106.92661 c 1.84497,2.84702 4.56208,4.8206 6.9932,7.11104 0.43177,0.4068 4.5711,3.93581 4.23815,4.39825 -0.11118,0.15439 -6.76294,-1.72019 -3.27562,-1.15014 0.9557,0.15623 1.97638,0.2771 2.88864,0.6237 0.51438,0.19545 1.37446,0.97253 1.97125,0.84172 0.0348,-0.008 -0.0627,-0.41145 -0.27993,-1.04505 -0.23172,-0.67583 -0.49405,-1.3089 -0.49405,-2.03213 0,-0.20061 -0.13875,0.3833 -0.26125,0.54215"
       id="path14149" />
    <path
       style="fill:none;fill-opacity:1;stroke:#000000;stroke-width:0.865;stroke-dasharray:none;stroke-opacity:1"
       d="m 708.78954,112.58795 c -0.54576,0.0864 -1.1239,0.055 -1.63733,0.25929 -1.84128,0.73279 -3.02916,2.25237 -4.63494,3.29623 -1.38417,0.8998 -2.92177,1.98927 -4.42674,2.70497 -1.11009,0.5279 -2.13157,0.97139 -3.12336,1.71685 -0.0415,0.0312 -2.75441,2.05899 -2.95148,1.96046 -0.17325,-0.0866 0.16209,-0.0799 0.54904,-0.63156 0.28379,-0.40457 1.84457,-3.01056 1.84457,-3.28837 0,-0.36941 -0.34197,0.65585 -0.4862,0.99594 -0.20518,0.48387 -0.54904,1.07934 -0.54904,1.61179 0,0.72488 3.66877,0.24593 4.16743,0.0972"
       id="path14151" />
    <rect
       style="fill:none;fill-opacity:1;stroke:#000000;stroke-width:0.639;stroke-linecap:butt;stroke-linejoin:miter;stroke-miterlimit:4.2;stroke-dasharray:none;stroke-opacity:1"
       id="rect18348-7-90"
       width="27.526196"
       height="13.355519"
       x="676.95258"
       y="55.380703" />
    <text
       xml:space="preserve"
       style="font-size:5.64444px;text-align:center;white-space:pre;shape-inside:url(#rect18348-7-90);display:inline;fill:#000000;fill-opacity:1;stroke:none;stroke-width:1.365;stroke-linecap:butt;stroke-linejoin:miter;stroke-miterlimit:4.2;stroke-dasharray:none;stroke-opacity:1"
       x="95.747009"
       y="119.88477"
       id="text18352-5-9"
       transform="translate(-0.18053,3.05415)"><tspan
         x="682.04596"
         y="60.516595"
         id="tspan18564">услуга</tspan></text>
    <path
       style="fill:none;fill-opacity:1;stroke:#000000;stroke-width:0.865;stroke-dasharray:none;stroke-opacity:1"
       d="m 721.81186,88.696496 c -2.10264,-0.20516 -3.41939,-2.00954 -4.81584,-3.41781 -1.1811,-1.1911 -2.46919,-2.29246 -3.73702,-3.39024 -1.53244,-1.32689 -3.30068,-2.38805 -4.81587,-3.72115 -0.94337,-0.83 -1.59009,-1.8016 -2.3958,-2.74259 -0.69805,-0.81529 -1.60563,-1.48202 -2.35069,-2.2596 -0.30499,-0.31832 -0.79164,-0.42553 -1.04122,-0.77216 -0.27564,-0.3828 0.62696,0.70795 0.8958,1.09553 0.80526,1.16092 0.65397,2.60774 1.14067,3.47298 0.25014,0.44468 -0.56316,-0.85495 -0.78134,-1.31615 -0.30646,-0.64788 -0.49477,-0.88934 -0.62005,-1.55683 -0.0375,-0.19963 -0.2104,-2.79302 -0.0535,-2.88716 0.29866,-0.1792 6.08981,2.69711 4.72392,3.14873"
       id="path17772" />
    <path
       style="fill:none;fill-opacity:1;stroke:#000000;stroke-width:0.865;stroke-dasharray:none;stroke-opacity:1"
       d="m 676.41683,72.303546 c -2.76014,1.46767 -4.82495,3.81698 -6.97519,6.02922 -1.71532,1.76477 -3.36777,3.57015 -4.78578,5.58882 -1.09376,1.5571 -2.19924,3.32181 -3.45289,4.71307 -0.007,0.008 0.26331,-0.52387 0.40611,-1.05457 0.21066,-0.78288 0.82147,-1.88992 0.57409,-2.67327 -0.10269,-0.32523 0.11268,0.67333 0.14541,1.01282 0.0204,0.21024 -0.0156,1.66201 0.25236,1.71559 1.25643,0.25127 2.04568,-2.51026 3.18551,-2.96323"
       id="path17774" />
  </g>
  <g
     inkscape:groupmode="layer"
     id="layer2"
     inkscape:label="Layer 2"
     style="display:inline">
    <rect
       style="fill:none;fill-opacity:1;stroke:#000000;stroke-width:0.639;stroke-linecap:butt;stroke-linejoin:miter;stroke-miterlimit:4.2;stroke-dasharray:none;stroke-opacity:1"
       id="rect18348"
       width="27.526196"
       height="13.355519"
       x="144.61353"
       y="246.36472" />
    <text
       xml:space="preserve"
       style="font-size:5.64444px;text-align:center;white-space:pre;shape-inside:url(#rect18348);display:inline;fill:#000000;fill-opacity:1;stroke:none;stroke-width:1.365;stroke-linecap:butt;stroke-linejoin:miter;stroke-miterlimit:4.2;stroke-dasharray:none;stroke-opacity:1"
       x="95.747009"
       y="119.88477"
       id="text18352"
       transform="translate(-0.18053,3.05415)"><tspan
         x="148.70522"
         y="251.50097"
         id="tspan18566">клиент</tspan></text>
    <rect
       style="fill:none;fill-opacity:1;stroke:#008080;stroke-width:0.639;stroke-linecap:butt;stroke-linejoin:miter;stroke-miterlimit:4.2;stroke-dasharray:none;stroke-opacity:1"
       id="rect18348-7"
       width="27.526196"
       height="13.355519"
       x="196.65617"
       y="275.23776" />
    <text
       xml:space="preserve"
       style="font-size:5.64444px;text-align:center;white-space:pre;shape-inside:url(#rect18348-7);display:inline;fill:#000000;fill-opacity:1;stroke:none;stroke-width:1.365;stroke-linecap:butt;stroke-linejoin:miter;stroke-miterlimit:4.2;stroke-dasharray:none;stroke-opacity:1"
       x="95.747009"
       y="119.88477"
       id="text18352-5"
       transform="translate(-0.18053,3.05415)"><tspan
         x="201.74908"
         y="280.37402"
         id="tspan18568">услуга</tspan></text>
    <rect
       style="fill:none;fill-opacity:1;stroke:#000000;stroke-width:1.74784;stroke-dasharray:none;stroke-opacity:1"
       id="rect4587-9"
       width="140.83238"
       height="110.66144"
       x="131.19923"
       y="216.88812" />
    <text
       xml:space="preserve"
       style="font-size:9.26678px;text-align:center;text-anchor:middle;fill:#000000;fill-opacity:1;stroke:none;stroke-width:1.74784;stroke-dasharray:none;stroke-opacity:1"
       x="181.15588"
       y="230.46225"
       id="text5070-3"><tspan
         sodipodi:role="line"
         id="tspan5068-1"
         style="fill:#000000;fill-opacity:1;stroke:none;stroke-width:1.74784"
         x="181.15588"
         y="230.46225">заказ услуг</tspan></text>
    <path
       style="fill:none;fill-opacity:1;stroke:#000000;stroke-width:0.865;stroke-dasharray:none;stroke-opacity:1"
       d="m 175.55461,257.0308 c 3.63906,0.76768 6.94151,2.52306 10.32028,3.99401 1.06254,0.4626 2.22186,0.69213 3.26351,1.20582 2.25844,1.11373 4.55612,2.5164 6.48504,4.14377 0.93669,0.79026 1.1503,2.17482 2.03729,3.02188 0.23363,0.22313 0.59629,0.25821 0.84168,0.48663 0.12887,0.11998 0.11681,0.27111 0.24956,0.27111 0.27421,0 -0.5502,-0.006 -0.82127,-0.0476 -0.53764,-0.0821 -1.09394,-0.0798 -1.60056,-0.30853 -0.86175,-0.38904 -1.6542,-0.93009 -2.51484,-1.3181 -0.23149,-0.10438 -0.91423,-0.17791 -0.69649,-0.30856 0.36915,-0.22148 4.47227,1.37375 5.02061,1.61759 0.6082,0.27045 1.22362,0.5107 1.82856,0.7861 0.21239,0.0967 0.62389,0.55097 0.62389,0.31761 0,-0.24755 -0.34202,-0.37532 -0.42651,-0.60802 -0.68847,-1.89616 -0.0328,-0.30533 -0.59213,-2.04861 -0.18761,-0.58478 -0.42728,-1.1516 -0.6341,-1.72987 -0.0303,-0.0846 -0.0329,-0.31967 -0.093,-0.25297 -0.34499,0.38253 -0.55271,0.708 -0.74866,1.18766"
       id="path14153" />
    <rect
       style="display:inline;fill:none;fill-opacity:1;stroke:#000000;stroke-width:0.639;stroke-linecap:butt;stroke-linejoin:miter;stroke-miterlimit:4.2;stroke-dasharray:none;stroke-opacity:1"
       id="rect18348-9"
       width="27.526196"
       height="13.355519"
       x="234.43552"
       y="247.0719" />
    <text
       xml:space="preserve"
       style="font-size:5.64444px;text-align:center;white-space:pre;shape-inside:url(#rect18348-9);display:inline;fill:#000000;fill-opacity:1;stroke:none;stroke-width:1.365;stroke-linecap:butt;stroke-linejoin:miter;stroke-miterlimit:4.2;stroke-dasharray:none;stroke-opacity:1"
       x="95.747009"
       y="119.88477"
       id="text18352-2"
       transform="translate(-0.18053,3.05415)"><tspan
         x="238.36563"
         y="252.208"
         id="tspan18570">воркер</tspan></text>
    <path
       style="display:inline;fill:none;fill-opacity:1;stroke:#000000;stroke-width:0.865;stroke-dasharray:none;stroke-opacity:1"
       d="m 215.31487,272.01937 c 3.85659,-3.28895 7.9085,-6.3383 11.9023,-9.46046 1.00828,-0.78822 3.00056,-1.57626 3.51782,-2.84845 0.24575,-0.60445 -2.36407,-1.17804 -2.60495,-1.20394 -0.27414,-0.0295 -0.88233,0.0973 -0.80978,-0.16875 0.005,-0.019 3.73808,-1.1494 4.24492,-0.59801 0.44016,0.47887 -0.78933,3.40754 -0.88228,3.8757 -0.0979,0.49281 -0.25993,3.21452 -0.94459,3.0172"
       id="path14199" />
  </g>
  <g
     inkscape:groupmode="layer"
     id="layer3"
     inkscape:label="Layer 3"
     style="display:inline">
    <rect
       style="fill:none;fill-opacity:1;stroke:#000000;stroke-width:1.74784;stroke-dasharray:none;stroke-opacity:1"
       id="rect4587"
       width="140.83238"
       height="110.66144"
       x="402.32425"
       y="41.980274" />
    <text
       xml:space="preserve"
       style="font-size:9.26678px;text-align:center;text-anchor:middle;fill:#000000;fill-opacity:1;stroke:none;stroke-width:1.74784;stroke-dasharray:none;stroke-opacity:1"
       x="461.02307"
       y="56.05785"
       id="text5070"><tspan
         sodipodi:role="line"
         id="tspan5068"
         style="fill:#000000;fill-opacity:1;stroke:none;stroke-width:1.74784"
         x="461.02307"
         y="56.05785">регистрация воркера</tspan></text>
    <rect
       style="fill:none;fill-opacity:1;stroke:#008080;stroke-width:0.639;stroke-linecap:butt;stroke-linejoin:miter;stroke-miterlimit:4.2;stroke-dasharray:none;stroke-opacity:1"
       id="rect18348-9-2"
       width="27.526196"
       height="13.355519"
       x="496.85925"
       y="88.256218" />
    <text
       xml:space="preserve"
       style="font-size:5.64444px;text-align:center;white-space:pre;shape-inside:url(#rect18348-9-2);display:inline;fill:#000000;fill-opacity:1;stroke:none;stroke-width:1.365;stroke-linecap:butt;stroke-linejoin:miter;stroke-miterlimit:4.2;stroke-dasharray:none;stroke-opacity:1"
       x="95.747009"
       y="119.88477"
       id="text18352-2-0"
       transform="translate(-0.180533,3.05415)"><tspan
         x="500.78946"
         y="93.391595"
         id="tspan18572">воркер</tspan></text>
    <rect
       style="fill:none;fill-opacity:1;stroke:#000000;stroke-width:0.811108;stroke-linecap:butt;stroke-linejoin:miter;stroke-miterlimit:4.2;stroke-dasharray:none;stroke-opacity:1"
       id="rect18348-1"
       width="44.929787"
       height="13.183412"
       x="422.74619"
       y="108.56387" />
    <text
       xml:space="preserve"
       style="font-size:5.64444px;text-align:center;white-space:pre;shape-inside:url(#rect18348-1);display:inline;fill:#000000;fill-opacity:1;stroke:none;stroke-width:1.365;stroke-linecap:butt;stroke-linejoin:miter;stroke-miterlimit:4.2;stroke-dasharray:none;stroke-opacity:1"
       x="95.747009"
       y="119.88477"
       id="text18352-29"
       transform="translate(-0.180533,3.05415)"><tspan
         x="425.93519"
         y="113.70019"
         id="tspan18574">тестирование</tspan></text>
    <path
       style="fill:none;fill-opacity:1;stroke:#000000;stroke-width:0.865;stroke-dasharray:none;stroke-opacity:1"
       d="m 494.08839,94.325079 c -2.67105,-0.921168 -9.1313,1.988537 -14.54388,3.782489 -3.53428,1.171403 -7.14145,1.717243 -10.26441,3.875682 -1.34998,0.93306 -2.57966,1.91713 -3.75658,3.04835 -0.1161,0.11159 -1.32805,1.27607 -1.35747,1.25496 -0.34391,-0.24669 2.08251,-3.49112 2.2583,-3.70586 0.15846,-0.19358 0.30628,-0.39573 0.46492,-0.58917 3.41302,-4.161804 -1.47978,1.90511 -1.36575,2.09264 0.0772,0.12702 0.2975,-0.009 0.44524,-0.0259 1.26468,-0.14148 2.46404,-0.6964 3.69964,-0.99092 0.18569,-0.0443 0.47369,0.0511 0.56018,-0.11908 0.0679,-0.13357 -0.25196,-0.16301 -0.36965,-0.25575 -0.26543,-0.20918 -0.51911,-0.43282 -0.77867,-0.64923"
       id="path14155" />
  </g>
  <g
     inkscape:groupmode="layer"
     id="layer4"
     inkscape:label="Layer 4"
     style="display:inline">
    <rect
       style="fill:none;fill-opacity:1;stroke:#000000;stroke-width:1.74784;stroke-dasharray:none;stroke-opacity:1"
       id="rect4587-4"
       width="140.83238"
       height="110.66144"
       x="482.4581"
       y="425.68195" />
    <text
       xml:space="preserve"
       style="font-size:9.26678px;text-align:center;text-anchor:middle;fill:#000000;fill-opacity:1;stroke:none;stroke-width:1.74784;stroke-dasharray:none;stroke-opacity:1"
       x="541.15692"
       y="439.75958"
       id="text5070-43"><tspan
         sodipodi:role="line"
         id="tspan5068-07"
         style="fill:#000000;fill-opacity:1;stroke:none;stroke-width:1.74784"
         x="541.15692"
         y="439.75958">выполнение заказа</tspan></text>
    <rect
       style="fill:none;fill-opacity:1;stroke:#000000;stroke-width:0.639;stroke-linecap:butt;stroke-linejoin:miter;stroke-miterlimit:4.2;stroke-dasharray:none;stroke-opacity:1"
       id="rect18348-92"
       width="27.526196"
       height="13.355519"
       x="505.39371"
       y="467.17197" />
    <text
       xml:space="preserve"
       style="font-size:5.64444px;text-align:center;white-space:pre;shape-inside:url(#rect18348-92);display:inline;fill:#000000;fill-opacity:1;stroke:none;stroke-width:1.365;stroke-linecap:butt;stroke-linejoin:miter;stroke-miterlimit:4.2;stroke-dasharray:none;stroke-opacity:1"
       x="95.747009"
       y="119.88477"
       id="text18352-66"
       transform="translate(-0.18053,3.054146)"><tspan
         x="509.48549"
         y="472.30761"
         id="tspan18576">клиент</tspan></text>
    <rect
       style="fill:none;fill-opacity:1;stroke:#000000;stroke-width:0.639;stroke-linecap:butt;stroke-linejoin:miter;stroke-miterlimit:4.2;stroke-dasharray:none;stroke-opacity:1"
       id="rect18348-9-4"
       width="27.526196"
       height="13.355519"
       x="576.09265"
       y="494.11096" />
    <text
       xml:space="preserve"
       style="font-size:5.64444px;text-align:center;white-space:pre;shape-inside:url(#rect18348-9-4);display:inline;fill:#000000;fill-opacity:1;stroke:none;stroke-width:1.365;stroke-linecap:butt;stroke-linejoin:miter;stroke-miterlimit:4.2;stroke-dasharray:none;stroke-opacity:1"
       x="95.747009"
       y="119.88477"
       id="text18352-2-9"
       transform="translate(-0.18053,3.054146)"><tspan
         x="580.02286"
         y="499.24706"
         id="tspan18578">воркер</tspan></text>
    <rect
       style="fill:none;fill-opacity:1;stroke:#000000;stroke-width:0.639;stroke-linecap:butt;stroke-linejoin:miter;stroke-miterlimit:4.2;stroke-dasharray:none;stroke-opacity:1"
       id="rect18348-7-1"
       width="27.526196"
       height="13.355519"
       x="565.55597"
       y="450.29733" />
    <text
       xml:space="preserve"
       style="font-size:5.64444px;text-align:center;white-space:pre;shape-inside:url(#rect18348-7-1);display:inline;fill:#000000;fill-opacity:1;stroke:none;stroke-width:1.365;stroke-linecap:butt;stroke-linejoin:miter;stroke-miterlimit:4.2;stroke-dasharray:none;stroke-opacity:1"
       x="95.747009"
       y="119.88477"
       id="text18352-5-5"
       transform="translate(-0.18053,3.05415)"><tspan
         x="570.64947"
         y="455.43261"
         id="tspan18580">услуга</tspan></text>
    <path
       style="fill:none;fill-opacity:1;stroke:#000000;stroke-width:0.865;stroke-dasharray:none;stroke-opacity:1"
       d="m 536.6876,467.62881 c -0.69906,-0.72435 -0.48197,1.3458 -0.95202,1.25383 -0.14404,-0.0282 0.29633,-0.10247 0.3793,-0.22352 0.22209,-0.32414 0.25604,-0.79769 0.57272,-1.03031 0.43386,-0.31869 1.03576,-0.30319 1.53077,-0.51477 1.06006,-0.45305 2.08315,-1.16983 3.14434,-1.65719 1.89891,-0.87212 3.74049,-1.86095 5.68886,-2.62507 3.09081,-1.21213 6.3464,-1.8832 9.53614,-2.74923 1.4034,-0.38103 4.00894,-1.44574 5.37876,-1.44574 1.07157,0 -0.90307,-0.1434 -1.14469,-0.20544 -0.19973,-0.0513 -1.97932,-0.41617 -1.97932,-0.6081 0,-0.0983 1.59776,0.008 1.66174,0.0188 0.70803,0.12277 1.40883,0.39246 2.08994,0.61412 0.2153,0.0701 0.87607,0.22847 0.65477,0.18061 -0.14909,-0.0322 -0.5202,0.28016 -0.57198,0.3289 -0.59031,0.55544 -1.09016,2.59318 -1.50368,2.22165"
       id="path14191" />
    <path
       style="fill:none;fill-opacity:1;stroke:#000000;stroke-width:0.865;stroke-dasharray:none;stroke-opacity:1"
       d="m 579.5501,467.26908 c 1.27132,1.47244 1.55802,3.45525 2.25475,5.21849 1.27146,3.21765 2.08661,6.55156 3.26853,9.7935 0.63008,1.72833 0.88228,3.58669 1.3095,5.37429 0.0407,0.17034 0.35306,1.00851 0.0279,0.95504 -1.10453,-0.18164 -1.63841,-2.25179 -2.04105,-3.12102 -0.29581,-0.6386 -0.31229,-0.63625 -0.51703,-1.235 -0.0298,-0.0872 -0.11236,-0.33189 -0.0414,-0.27321 0.38613,0.31943 0.61116,0.42767 0.94451,0.8685 0.25355,0.3353 1.81827,3.00479 2.29616,2.92309 0.31025,-0.053 0.39259,-4.08186 0.46209,-4.52988 0.0114,-0.0731 -0.0457,0.14065 -0.0692,0.21074"
       id="path14195" />
  </g>
  <g
     inkscape:groupmode="layer"
     id="layer5"
     inkscape:label="Layer 5"
     style="display:inline" />
  <g
     inkscape:groupmode="layer"
     id="layer6"
     inkscape:label="Layer 6"
     style="display:inline">
    <rect
       style="fill:none;fill-opacity:1;stroke:#000000;stroke-width:1.74784;stroke-dasharray:none;stroke-opacity:1"
       id="rect4587-3"
       width="140.83238"
       height="110.66144"
       x="125.19041"
       y="491.12714" />
    <text
       xml:space="preserve"
       style="font-size:9.26678px;text-align:center;text-anchor:middle;fill:#000000;fill-opacity:1;stroke:none;stroke-width:1.74784;stroke-dasharray:none;stroke-opacity:1"
       x="183.88924"
       y="505.20477"
       id="text5070-6"><tspan
         sodipodi:role="line"
         id="tspan5068-10"
         style="fill:#000000;fill-opacity:1;stroke:none;stroke-width:1.74784"
         x="183.88924"
         y="505.20477">склад</tspan></text>
    <rect
       style="fill:none;fill-opacity:1;stroke:#000000;stroke-width:0.639;stroke-linecap:butt;stroke-linejoin:miter;stroke-miterlimit:4.2;stroke-dasharray:none;stroke-opacity:1"
       id="rect18348-7-4"
       width="27.526196"
       height="13.355519"
       x="148.69695"
       y="521.04175" />
    <text
       xml:space="preserve"
       style="font-size:5.64444px;text-align:center;white-space:pre;shape-inside:url(#rect18348-7-4);display:inline;fill:#000000;fill-opacity:1;stroke:none;stroke-width:1.365;stroke-linecap:butt;stroke-linejoin:miter;stroke-miterlimit:4.2;stroke-dasharray:none;stroke-opacity:1"
       x="95.747009"
       y="119.88477"
       id="text18352-5-3"
       transform="translate(-0.180533,3.05415)"><tspan
         x="153.7901"
         y="526.17675"
         id="tspan18582">услуга</tspan></text>
    <rect
       style="fill:none;fill-opacity:1;stroke:#000000;stroke-width:0.864853;stroke-linecap:butt;stroke-linejoin:miter;stroke-miterlimit:4.2;stroke-dasharray:none;stroke-opacity:1"
       id="rect18348-78-3-6"
       width="33.854446"
       height="19.891787"
       x="194.87682"
       y="551.91412" />
    <text
       xml:space="preserve"
       style="font-size:5.64444px;text-align:center;white-space:pre;shape-inside:url(#rect18348-78-3-6);display:inline;fill:#000000;fill-opacity:1;stroke:none;stroke-width:1.365;stroke-linecap:butt;stroke-linejoin:miter;stroke-miterlimit:4.2;stroke-dasharray:none;stroke-opacity:1"
       x="95.747009"
       y="119.88477"
       id="text18352-4-6-3"
       transform="translate(-0.180533,3.05415)"><tspan
         x="197.33136"
         y="557.0498"
         id="tspan18584">выдача на </tspan><tspan
         x="202.51015"
         y="564.10534"
         id="tspan18586">складе</tspan></text>
    <path
       style="fill:none;fill-opacity:1;stroke:#000000;stroke-width:0.865;stroke-dasharray:none;stroke-opacity:1"
       d="m 180.1398,530.10796 c 3.14995,0.88945 4.46821,3.87665 6.76439,5.84615 2.72212,2.33482 5.38113,3.69798 7.22757,6.92923 0.23318,0.40806 1.2691,2.21279 1.26003,2.23491 -0.20034,0.48977 -3.16521,-1.13718 -3.42821,-1.23376 -0.2881,-0.10575 -0.4722,-0.25394 -0.71395,-0.43381 -0.0415,-0.0309 -0.15814,-0.13001 -0.11123,-0.10821 1.74479,0.81097 3.40363,1.77887 5.115,2.65155 0.40302,0.2055 1.07905,0.75811 1.30657,0.36708 0.74668,-1.28336 -1.13586,-3.77328 -1.30657,-5.10389"
       id="path14255" />
  </g>
  <g
     inkscape:groupmode="layer"
     id="layer7"
     inkscape:label="Layer 7"
     style="display:inline">
    <rect
       style="fill:none;fill-opacity:1;stroke:#000000;stroke-width:1.74784;stroke-dasharray:none;stroke-opacity:1"
       id="rect4587-6"
       width="140.83238"
       height="110.66144"
       x="668.28516"
       y="245.86914" />
    <text
       xml:space="preserve"
       style="font-size:9.26678px;text-align:center;text-anchor:middle;fill:#000000;fill-opacity:1;stroke:none;stroke-width:1.74784;stroke-dasharray:none;stroke-opacity:1"
       x="726.98395"
       y="259.94678"
       id="text5070-32"><tspan
         sodipodi:role="line"
         id="tspan5068-0"
         style="fill:#000000;fill-opacity:1;stroke:none;stroke-width:1.74784"
         x="726.98395"
         y="259.94678">азартная игра</tspan></text>
    <rect
       style="fill:none;fill-opacity:1;stroke:#000000;stroke-width:0.690029;stroke-linecap:butt;stroke-linejoin:miter;stroke-miterlimit:4.2;stroke-dasharray:none;stroke-opacity:1"
       id="rect18348-2"
       width="32.221241"
       height="13.30449"
       x="744.9574"
       y="275.46991" />
    <text
       xml:space="preserve"
       style="font-size:5.64444px;text-align:center;white-space:pre;shape-inside:url(#rect18348-2);display:inline;fill:#000000;fill-opacity:1;stroke:none;stroke-width:1.365;stroke-linecap:butt;stroke-linejoin:miter;stroke-miterlimit:4.2;stroke-dasharray:none;stroke-opacity:1"
       x="95.747009"
       y="119.88477"
       id="text18352-3"
       transform="translate(-0.18053,3.05415)"><tspan
         x="746.95347"
         y="280.60644"
         id="tspan18588">менеджер</tspan></text>
    <rect
       style="fill:none;fill-opacity:1;stroke:#000000;stroke-width:0.639;stroke-linecap:butt;stroke-linejoin:miter;stroke-miterlimit:4.2;stroke-dasharray:none;stroke-opacity:1"
       id="rect18348-28"
       width="27.526196"
       height="13.355519"
       x="706.67175"
       y="320.09329" />
    <text
       xml:space="preserve"
       style="font-size:5.64444px;text-align:center;white-space:pre;shape-inside:url(#rect18348-28);display:inline;fill:#000000;fill-opacity:1;stroke:none;stroke-width:1.365;stroke-linecap:butt;stroke-linejoin:miter;stroke-miterlimit:4.2;stroke-dasharray:none;stroke-opacity:1"
       x="95.747009"
       y="119.88477"
       id="text18352-9"
       transform="translate(-0.18053,3.05415)"><tspan
         x="711.45144"
         y="325.22949"
         id="tspan18590">ставка</tspan></text>
    <path
       style="fill:none;fill-opacity:1;stroke:#000000;stroke-width:0.865;stroke-dasharray:none;stroke-opacity:1"
       d="m 749.95018,292.90383 c -0.42381,0.14533 -0.87492,0.22738 -1.27145,0.43595 -0.67117,0.35301 -4.11258,4.54314 -4.9824,5.42822 -2.20424,2.24287 -4.00309,4.66733 -6.01168,7.07067 -2.21292,2.64785 -4.73522,5.05677 -6.9991,7.66183 -0.52469,0.60376 -3.00048,4.48395 -3.56121,4.71157 -0.0626,0.0254 0.0124,-0.13531 0.0308,-0.20034 0.0868,-0.30771 0.30134,-0.94914 0.38309,-1.20761 0.44628,-1.41103 0.64918,-2.77781 0.88728,-4.22942 0.066,-0.40278 0.36333,-1.58279 0.20254,-1.20764 -0.2527,0.58968 -0.37721,4.04977 0.42273,3.74946 1.6588,-0.62272 2.59659,-1.88346 4.01476,-2.86877"
       id="path14257" />
    <rect
       style="fill:none;fill-opacity:1;stroke:#000000;stroke-width:0.639;stroke-linecap:butt;stroke-linejoin:miter;stroke-miterlimit:4.2;stroke-dasharray:none;stroke-opacity:1"
       id="rect18348-7-9"
       width="27.526196"
       height="13.355519"
       x="676.14984"
       y="278.8378" />
    <text
       xml:space="preserve"
       style="font-size:5.64444px;text-align:center;white-space:pre;shape-inside:url(#rect18348-7-9);display:inline;fill:#000000;fill-opacity:1;stroke:none;stroke-width:1.365;stroke-linecap:butt;stroke-linejoin:miter;stroke-miterlimit:4.2;stroke-dasharray:none;stroke-opacity:1"
       x="95.747009"
       y="119.88477"
       id="text18352-5-4"
       transform="translate(-0.18053,3.05415)"><tspan
         x="681.24322"
         y="283.97363"
         id="tspan18592">услуга</tspan></text>
    <path
       style="fill:none;fill-opacity:1;stroke:#000000;stroke-width:0.865;stroke-dasharray:none;stroke-opacity:1"
       d="m 717.88096,318.51049 c -3.8508,-0.82984 -1.90172,0.0516 -5.50211,-3.46183 -0.78407,-0.76515 -1.60526,-1.49455 -2.34678,-2.30103 -2.51759,-2.73817 -4.50215,-5.84996 -6.70637,-8.82668 -1.01727,-1.37383 -2.18135,-2.63435 -3.22738,-3.98907 -0.10131,-0.13124 -0.76944,-0.91792 -0.87945,-1.01786 -0.20087,-0.18243 -0.41778,-0.34959 -0.64961,-0.49061 -2.97259,-1.8083 -0.72887,-0.34229 -0.0423,1.07503 0.14692,0.30334 1.16514,2.20845 0.41857,1.52791 -0.56132,-0.51165 -1.09363,-0.97007 -1.47646,-1.64113 -0.60489,-1.06037 -1.36636,-2.55812 -1.00642,-3.8095 0.15105,-0.52509 1.24389,-0.1942 1.57139,-0.0377 1.2084,0.57729 2.24004,1.47595 3.48927,1.99911 0.74242,0.31091 1.5512,0.55269 2.34791,0.68847 1.36411,0.23249 0.61524,0.0829 0.0103,-0.33052"
       id="path17002" />
  </g>
  <g
     inkscape:groupmode="layer"
     id="layer8"
     inkscape:label="Layer 8"
     style="display:inline">
    <rect
       style="fill:none;fill-opacity:1;stroke:#000000;stroke-width:1.74784;stroke-dasharray:none;stroke-opacity:1"
       id="rect4587-61"
       width="140.83238"
       height="110.66144"
       x="630.0874"
       y="566.97021" />
    <text
       xml:space="preserve"
       style="font-size:9.26678px;text-align:center;text-anchor:middle;fill:#000000;fill-opacity:1;stroke:none;stroke-width:1.74784;stroke-dasharray:none;stroke-opacity:1"
       x="688.78619"
       y="581.04779"
       id="text5070-5"><tspan
         sodipodi:role="line"
         id="tspan5068-5"
         style="fill:#000000;fill-opacity:1;stroke:none;stroke-width:1.74784"
         x="688.78619"
         y="581.04779">проверка качества</tspan></text>
    <rect
       style="fill:none;fill-opacity:1;stroke:#000000;stroke-width:0.639;stroke-linecap:butt;stroke-linejoin:miter;stroke-miterlimit:4.2;stroke-dasharray:none;stroke-opacity:1"
       id="rect18348-71"
       width="27.526196"
       height="13.355519"
       x="715.28455"
       y="594.2865" />
    <text
       xml:space="preserve"
       style="font-size:5.64444px;text-align:center;white-space:pre;shape-inside:url(#rect18348-71);display:inline;fill:#000000;fill-opacity:1;stroke:none;stroke-width:1.365;stroke-linecap:butt;stroke-linejoin:miter;stroke-miterlimit:4.2;stroke-dasharray:none;stroke-opacity:1"
       x="95.747009"
       y="119.88477"
       id="text18352-7"
       transform="translate(-0.18053,3.05415)"><tspan
         x="719.37611"
         y="599.42285"
         id="tspan18594">клиент</tspan></text>
    <rect
       style="fill:none;fill-opacity:1;stroke:#000000;stroke-width:0.639;stroke-linecap:butt;stroke-linejoin:miter;stroke-miterlimit:4.2;stroke-dasharray:none;stroke-opacity:1"
       id="rect18348-7-2"
       width="27.526196"
       height="13.355519"
       x="716.38702"
       y="650.9447" />
    <text
       xml:space="preserve"
       style="font-size:5.64444px;text-align:center;white-space:pre;shape-inside:url(#rect18348-7-2);display:inline;fill:#000000;fill-opacity:1;stroke:none;stroke-width:1.365;stroke-linecap:butt;stroke-linejoin:miter;stroke-miterlimit:4.2;stroke-dasharray:none;stroke-opacity:1"
       x="95.747009"
       y="119.88477"
       id="text18352-5-7"
       transform="translate(-0.18053,3.05415)"><tspan
         x="721.48053"
         y="656.08105"
         id="tspan18596">услуга</tspan></text>
    <rect
       style="fill:none;fill-opacity:1;stroke:#000000;stroke-width:0.864853;stroke-linecap:butt;stroke-linejoin:miter;stroke-miterlimit:4.2;stroke-dasharray:none;stroke-opacity:1"
       id="rect18348-78-3-1"
       width="33.854446"
       height="19.891787"
       x="660.29034"
       y="594.83575" />
    <text
       xml:space="preserve"
       style="font-size:5.64444px;text-align:center;white-space:pre;shape-inside:url(#rect18348-78-3-1);display:inline;fill:#000000;fill-opacity:1;stroke:none;stroke-width:1.365;stroke-linecap:butt;stroke-linejoin:miter;stroke-miterlimit:4.2;stroke-dasharray:none;stroke-opacity:1"
       x="95.747009"
       y="119.88477"
       id="text18352-4-6-0"
       transform="translate(-0.18053,3.05415)"><tspan
         x="663.98439"
         y="599.97167"
         id="tspan18598">проверка </tspan><tspan
         x="664.91289"
         y="607.02722"
         id="tspan18600">качества</tspan></text>
    <path
       style="fill:none;fill-opacity:1;stroke:#000000;stroke-width:0.865;stroke-dasharray:none;stroke-opacity:1"
       d="m 733.62696,610.19532 c -0.17643,0.41796 -0.40662,0.81709 -0.52925,1.25386 -0.44731,1.59303 0.16687,5.55969 0.30022,7.19701 0.48289,5.92878 1.27281,11.85921 1.9217,17.77452 0.19309,1.76006 0.29805,6.90584 0.93535,8.18047 0.0222,0.0443 -0.0336,-0.0945 -0.0625,-0.13473 -0.0988,-0.13755 -0.20529,-0.26945 -0.30792,-0.40415 -0.1235,-0.20627 -0.23489,-0.42023 -0.37049,-0.61875 -0.8228,-1.20476 -2.11789,-2.75868 -3.20059,-3.73756 -0.12808,-0.11581 0.29602,0.17944 0.43207,0.2858 0.35515,0.27763 0.70741,0.56013 1.04023,0.86413 0.88442,0.80786 2.13781,2.27992 3.53547,2.19885 0.61854,-0.0359 0.84577,-4.70863 0.9344,-5.4514 0.0759,-0.63648 0.60473,-1.66864 -0.0962,0.15013"
       id="path14259" />
    <path
       style="fill:none;fill-opacity:1;stroke:#000000;stroke-width:0.865;stroke-dasharray:none;stroke-opacity:1"
       d="m 722.14777,648.45036 c -0.82103,-0.53969 -1.22169,-1.44547 -1.86976,-2.13436 -0.56716,-0.60293 -1.55292,-1.08498 -2.19498,-1.56374 -1.19219,-0.88898 -2.39527,-1.84653 -3.44694,-2.8965 -2.10415,-2.10082 -3.99402,-4.43847 -5.97776,-6.64946 -1.49111,-1.6619 -3.13669,-3.1931 -4.6296,-4.85574 -0.64915,-0.72292 -1.20533,-1.52722 -1.89571,-2.21424 -0.86746,-0.86318 -1.89061,-1.59898 -2.80318,-2.42017 -2.24002,-2.01568 -4.61743,-3.92086 -6.25973,-6.47526 -0.0871,-0.13559 -0.80253,-0.75239 -0.80253,-0.8805 0,-0.43059 0.36875,0.77819 0.55523,1.16628 0.32348,0.67315 0.43373,1.06807 0.81121,1.71387 1.19523,2.04467 2.83009,3.78608 3.4739,6.10285 0.73655,2.65062 -0.44228,-0.77706 -0.70538,-1.23076 -0.45947,-0.79243 -1.11516,-1.58494 -1.68402,-2.30855 -0.47278,-0.60145 -0.94215,-1.20385 -1.41938,-1.80141 -0.19392,-0.24284 -0.84648,-0.52541 -0.5995,-0.71403 0.56545,-0.43178 6.2597,1.78279 7.16812,2.16614 0.4458,0.18812 0.97211,0.32425 1.36647,0.61106 0.0725,0.0527 0.44032,0.49717 0.49366,0.45227 0.059,-0.0497 -0.1524,-0.0346 -0.22037,-0.0712 -0.25363,-0.1365 -0.49398,-0.29639 -0.74097,-0.44458"
       id="path14261" />
  </g>
  <g
     inkscape:groupmode="layer"
     id="layer9"
     inkscape:label="Layer 9"
     style="display:inline">
    <rect
       style="fill:none;fill-opacity:1;stroke:#000000;stroke-width:1.74784;stroke-dasharray:none;stroke-opacity:1"
       id="rect4587-5"
       width="140.83238"
       height="110.66144"
       x="465.23282"
       y="703.79883" />
    <text
       xml:space="preserve"
       style="font-size:9.26678px;text-align:center;text-anchor:middle;fill:#000000;fill-opacity:1;stroke:none;stroke-width:1.74784;stroke-dasharray:none;stroke-opacity:1"
       x="523.93164"
       y="717.87646"
       id="text5070-4"><tspan
         sodipodi:role="line"
         id="tspan5068-7"
         style="fill:#000000;fill-opacity:1;stroke:none;stroke-width:1.74784"
         x="523.93164"
         y="717.87646">расчет с клиентом</tspan></text>
    <rect
       style="fill:none;fill-opacity:1;stroke:#000000;stroke-width:0.639;stroke-linecap:butt;stroke-linejoin:miter;stroke-miterlimit:4.2;stroke-dasharray:none;stroke-opacity:1"
       id="rect18348-22"
       width="27.526196"
       height="13.355519"
       x="494.61008"
       y="737.45721" />
    <text
       xml:space="preserve"
       style="font-size:5.64444px;text-align:center;white-space:pre;shape-inside:url(#rect18348-22);display:inline;fill:#000000;fill-opacity:1;stroke:none;stroke-width:1.365;stroke-linecap:butt;stroke-linejoin:miter;stroke-miterlimit:4.2;stroke-dasharray:none;stroke-opacity:1"
       x="95.747009"
       y="119.88477"
       id="text18352-61"
       transform="translate(-0.18053,3.05415)"><tspan
         x="498.70131"
         y="742.59277"
         id="tspan18602">клиент</tspan></text>
    <rect
       style="fill:none;fill-opacity:1;stroke:#000000;stroke-width:0.639;stroke-linecap:butt;stroke-linejoin:miter;stroke-miterlimit:4.2;stroke-dasharray:none;stroke-opacity:1"
       id="rect18348-7-0"
       width="27.526196"
       height="13.355519"
       x="492.95297"
       y="783.25568" />
    <text
       xml:space="preserve"
       style="font-size:5.64444px;text-align:center;white-space:pre;shape-inside:url(#rect18348-7-0);display:inline;fill:#000000;fill-opacity:1;stroke:none;stroke-width:1.365;stroke-linecap:butt;stroke-linejoin:miter;stroke-miterlimit:4.2;stroke-dasharray:none;stroke-opacity:1"
       x="95.747009"
       y="119.88477"
       id="text18352-5-6"
       transform="translate(-0.18053,3.05415)"><tspan
         x="498.04596"
         y="788.3916"
         id="tspan18604">услуга</tspan></text>
    <rect
       style="fill:none;fill-opacity:1;stroke:#000000;stroke-width:0.864853;stroke-linecap:butt;stroke-linejoin:miter;stroke-miterlimit:4.2;stroke-dasharray:none;stroke-opacity:1"
       id="rect18348-78-3"
       width="33.854446"
       height="19.891787"
       x="546.88678"
       y="757.20428" />
    <text
       xml:space="preserve"
       style="font-size:5.64444px;text-align:center;white-space:pre;shape-inside:url(#rect18348-78-3);display:inline;fill:#000000;fill-opacity:1;stroke:none;stroke-width:1.365;stroke-linecap:butt;stroke-linejoin:miter;stroke-miterlimit:4.2;stroke-dasharray:none;stroke-opacity:1"
       x="95.747009"
       y="119.88477"
       id="text18352-4-6"
       transform="translate(-0.18053,3.05415)"><tspan
         x="553.69962"
         y="762.34081"
         id="tspan18606">инвойс </tspan><tspan
         x="552.55945"
         y="769.39636"
         id="tspan18608">клиента</tspan></text>
    <path
       style="fill:none;fill-opacity:1;stroke:#000000;stroke-width:0.865;stroke-dasharray:none;stroke-opacity:1"
       d="m 525.22842,745.36985 c 0.79788,0.89818 1.71765,1.60181 2.70769,2.25951 3.34653,2.22319 6.83501,4.05697 10.53426,5.57586 1.23843,0.5085 2.40217,1.1721 3.64027,1.67042 0.59899,0.24109 1.4238,0.43937 1.40813,0.411 -0.74956,-1.35861 -2.58733,-1.84708 -3.53261,-2.96113 -0.0355,-0.0419 0.10705,0.0251 0.16148,0.0323 0.45241,0.0603 0.57822,0.045 1.03923,0.18494 0.42667,0.12957 0.80505,0.2645 1.16546,0.52451 0.38156,0.27525 2.501,2.50724 2.39456,3.04236 -0.37732,1.89685 -4.83031,1.45669 -6.02504,1.22714"
       id="path14263" />
    <path
       style="fill:none;fill-opacity:1;stroke:#000000;stroke-width:0.865;stroke-dasharray:none;stroke-opacity:1"
       d="m 543.98457,768.14889 c -1.70606,0.0669 -2.9538,1.26439 -4.4828,1.83187 -3.36386,1.24848 -6.79265,2.70766 -9.89817,4.52686 -1.93675,1.1345 -3.75256,2.43874 -5.7031,3.55806 -0.32977,0.18923 -3.27657,2.28227 -3.32613,2.25949 -0.0469,-0.0214 0.18132,-0.12258 0.56462,-0.69379 0.44255,-0.65947 0.67855,-1.41481 0.93258,-2.15479 0.22709,-0.66152 0.83177,-1.06527 0.79851,-0.97565 -0.14189,0.38227 -1.11011,2.03493 -0.81613,2.45229 0.64347,0.91342 4.96591,-0.86416 5.75593,-0.95213"
       id="path14265" />
    <path
       style="fill:none;fill-opacity:1;stroke:#000000;stroke-width:0.865;stroke-dasharray:none;stroke-opacity:1"
       d="m 506.10336,752.90677 c 1.12577,5.18123 2.16834,10.39032 3.19206,15.59735 0.18246,0.92794 0.37058,1.85491 0.50202,2.79183 0.0514,0.36639 0.0737,0.54932 0.10764,0.91204 0.0108,0.11681 0.17997,0.34639 0.0626,0.34639 -0.59314,0 -1.50018,-0.4632 -2.008,-0.77403 -0.37512,-0.22961 -0.75358,-0.7537 -0.64587,-0.4844 0.22645,0.5661 1.13048,1.50717 1.46198,1.93659 0.26231,0.33978 1.98789,2.21332 2.65388,1.47666 0.57115,-0.6318 0.43153,-4.803 0.49318,-5.7295 0.0558,-0.83904 0.0608,-1.36339 0.18791,-1.15374 0.20883,0.3446 -0.11875,1.56025 -0.15267,1.97768"
       id="path14267" />
  </g>
  <g
     inkscape:groupmode="layer"
     id="layer11"
     inkscape:label="Layer 11">
    <rect
       style="display:inline;fill:none;fill-opacity:1;stroke:#008080;stroke-width:0.639;stroke-linecap:butt;stroke-linejoin:miter;stroke-miterlimit:4.2;stroke-dasharray:none;stroke-opacity:1"
       id="rect18348-75"
       width="27.526196"
       height="13.355519"
       x="358.33493"
       y="251.78546" />
    <text
       xml:space="preserve"
       style="font-size:5.64444px;text-align:center;white-space:pre;shape-inside:url(#rect18348-75);display:inline;fill:#000000;fill-opacity:1;stroke:none;stroke-width:1.365;stroke-linecap:butt;stroke-linejoin:miter;stroke-miterlimit:4.2;stroke-dasharray:none;stroke-opacity:1"
       x="95.747009"
       y="119.88477"
       id="text18352-35"
       transform="translate(-0.18053,3.05415)"><tspan
         x="362.42592"
         y="256.92089"
         id="tspan18610">клиент</tspan></text>
    <rect
       style="display:inline;fill:none;fill-opacity:1;stroke:#000000;stroke-width:1.74784;stroke-dasharray:none;stroke-opacity:1"
       id="rect4587-9-9"
       width="140.83238"
       height="110.66144"
       x="335.78546"
       y="216.37758" />
    <text
       xml:space="preserve"
       style="font-size:9.26678px;text-align:center;text-anchor:middle;display:inline;fill:#000000;fill-opacity:1;stroke:none;stroke-width:1.74784;stroke-dasharray:none;stroke-opacity:1"
       x="394.87729"
       y="235.883"
       id="text5070-3-1"><tspan
         sodipodi:role="line"
         id="tspan5068-1-2"
         style="fill:#000000;fill-opacity:1;stroke:none;stroke-width:1.74784"
         x="394.87729"
         y="235.883">найм клиента</tspan></text>
  </g>
  <g
     inkscape:groupmode="layer"
     id="layer10"
     inkscape:label="Layer 10"
     style="display:inline">
    <path
       style="fill:none;stroke:#000000;stroke-width:0.865"
       d="m 511.49686,108.14543 c 7.4889,9.93579 1.39237,21.35063 3.09134,32.21963 0.96893,6.19865 3.9406,11.9022 4.56636,18.27727 0.97452,9.92783 -0.57729,19.78794 0.43154,29.66575 1.17088,11.46448 4.77477,22.57109 8.0147,33.57699 2.7118,9.21187 4.21751,18.63352 8.26577,27.42964 3.51489,7.63723 10.51626,13.40084 15.09572,20.38 6.08632,9.27568 11.44426,19.02108 17.79474,28.14362 7.566,10.86872 17.36529,20.20433 25.23276,30.89365 11.31617,15.37502 23.45814,33.10985 32.20392,50.04575 3.39254,6.5695 6.0861,13.49209 9.05822,20.25055 3.84077,8.73368 9.10759,16.80673 11.50226,26.10366 3.08207,11.96573 4.83613,23.8561 -4.42124,33.41616 -6.27801,6.48327 -16.19147,10.85517 -21.70989,16.661 -1.90582,2.00506 -8.80546,8.61451 -10.81966,9.60741 -2.93118,1.44497 -4.74289,2.96781 -4.74289,2.75003 0,-2.96582 4.52625,-10.22384 4.24077,-10.54502 -0.71467,-0.80399 -7.05337,14.39053 -6.29251,14.29541 2.70685,-0.33835 5.40176,-1.60203 7.72832,-2.87554 0.9987,-0.54669 2.15847,-1.19539 3.23646,-1.58883 0.16,-0.0584 0.66263,-0.0371 0.50216,-0.0942 -0.37804,-0.13436 -0.76629,-0.238 -1.14943,-0.35698"
       id="path12273" />
    <path
       style="fill:none;stroke:#000000;stroke-width:0.865"
       d="m 354.05067,258.69101 c -3.26673,-14.55424 -10.86511,-28.39532 -21.13224,-39.26816 -2.51627,-2.66472 -5.66311,-4.67915 -8.49207,-6.98952 -3.27276,-2.67281 -5.90708,-6.088 -9.34566,-8.58269 -2.79083,-2.02475 -5.83708,-3.49882 -8.89257,-5.06016 -14.88852,-7.60798 -28.58711,-12.03132 -45.13221,-14.4146 -12.48318,-1.79817 -25.64654,-4.86699 -38.2187,-1.92935 -13.53057,3.16158 -28.17583,6.87103 -39.82943,14.77708 -4.47621,3.03676 -8.52645,7.09306 -12.47939,10.77514 -6.49843,6.05312 -15.71112,14.52543 -17.03677,23.83919 -0.48113,3.38032 0.0495,7.09185 0.29525,10.48573 0.055,0.759 0.2192,2.97342 0.42972,2.24214 0.0707,-0.24573 -2.80096,-1.91373 -3.0548,-2.14567 -0.32536,-0.29729 -2.26217,-3.51961 -2.56955,-3.51961 -0.16764,0 0.27271,0.19999 0.4268,0.26602 0.95103,0.40758 1.26475,0.48487 2.30353,1.10792 1.31693,0.78988 2.51788,1.79147 3.80316,2.62801 2.07315,1.34933 1.37119,1.27214 1.6341,-0.86821 0.22896,-1.86397 1.31683,-3.51866 1.90304,-5.3028"
       id="path18200" />
    <path
       style="fill:none;stroke:#000000;stroke-width:0.865"
       d="m 372.61045,271.52997 c 1.96215,9.01914 4.84394,17.89443 6.45457,26.99631 0.94953,5.36582 1.53376,10.92536 3.13375,16.15101 1.03706,3.38712 2.30166,6.65146 3.16002,10.09986 2.52058,10.12613 3.36056,20.65792 6.02777,30.73516 1.80374,6.81488 5.49068,12.5077 8.24944,18.89596 1.54025,3.56664 2.78585,7.28599 4.23288,10.89792 4.47546,11.17103 7.74706,22.89855 15.82653,32.15585 6.70417,7.68151 12.65624,9.62726 20.70547,15.13665 3.01797,2.06568 5.75459,4.5991 8.83701,6.55688 3.42299,2.17408 7.00079,3.97539 10.36587,6.26748 2.21499,1.50868 4.24757,3.30959 6.58905,4.62751 4.71511,2.65395 10.56336,4.20676 15.66865,6.00146 2.81477,0.98946 5.71162,1.90233 8.43653,3.11034 0.50358,0.22325 5.08006,2.03533 5.11572,1.80951 0.0661,-0.419 -5.73791,-4.18201 -6.45456,-4.99002 -0.7575,-0.85407 -1.32361,-1.79014 -2.06089,-2.65139 -0.36963,-0.43177 -1.45929,-1.65094 -0.93838,-1.42364 2.29987,1.00356 5.40494,1.73657 7.87527,2.36199 1.66566,0.42172 3.1626,1.00777 4.71229,1.75982 1.62004,0.78618 3.31173,1.5608 4.65968,2.77416 6.79019,6.11224 -4.43563,6.75767 -8.91887,6.58026 -0.26146,-0.0103 -2.18212,-0.29035 -2.32984,-0.24262 -0.71289,0.23027 -1.28429,0.77174 -1.92643,1.15761"
       id="path18202" />
    <path
       style="fill:none;stroke:#000000;stroke-width:0.865"
       d="m 361.81778,270.04788 c -1.80186,12.51664 -8.42618,25.56674 -5.06309,38.27716 1.59224,6.01763 6.51899,10.51571 7.84897,16.53688 0.88426,4.00336 -0.61531,8.06339 -1.09916,12.02923 -0.3905,3.20077 -0.39322,6.54849 -0.16076,9.76077 0.80031,11.05974 4.98073,21.75857 6.29378,33.09715 1.08622,9.37998 0.83873,18.96052 1.49963,28.37315 0.45884,6.53497 1.99496,12.67047 3.0548,19.08889 1.03177,6.2484 1.4179,12.62312 2.03459,18.92229 1.24542,12.72156 2.09553,26.33345 6.29378,38.4964 1.78382,5.168 4.68976,10.00088 7.17952,14.85016 5.33315,10.38738 9.96384,20.11468 19.04211,27.84113 7.09666,6.0399 15.04178,9.33561 22.92716,14.05212 4.97006,2.97278 9.81778,6.41012 14.99922,8.99195 7.38138,3.67802 15.52972,5.93402 23.57025,7.61801 9.37996,1.96453 19.37983,2.534 28.95198,2.69817 3.55891,0.061 7.13338,-0.33713 10.68745,-0.14325 10.37269,0.56592 20.82503,1.55012 31.17656,0.0233 6.23084,-0.91895 12.127,-2.93288 18.45456,-3.5196 14.94756,-1.38602 30.56056,-0.14832 45.18189,-4.19489 7.48665,-2.07197 14.44125,-5.81514 21.56198,-8.82239 12.96702,-5.47627 31.1898,-12.7009 45.45086,-13.33006 5.03108,-0.22196 10.15352,-0.75424 15.18632,-0.69866 3.36661,0.0372 6.69227,0.6925 10.04432,0.8916 3.76976,0.22389 8.25254,-0.48837 11.76028,1.35054 7.24329,3.79724 13.98585,11.57822 17.89036,18.67963 3.63411,6.60961 2.83993,14.70242 2.73032,21.93616 -0.0425,2.80598 -0.46911,5.49 -0.64019,8.26989 -0.0784,1.27466 0.0275,2.59414 0,3.87916 -0.0103,0.48231 0.38687,1.76753 0.0265,1.44701 -0.7003,-0.62246 -5.3458,-5.48558 -4.31181,-6.41069 0.43529,-0.3895 3.24951,5.54249 3.61606,5.54249 0.0954,0 5.60266,-6.27298 6.02483,-7.25554"
       id="path18204" />
    <path
       style="fill:none;stroke:#000000;stroke-width:0.865"
       d="m 352.71183,267.59233 c -1.143,0.65093 -2.42213,1.10636 -3.42897,1.95273 -1.2369,1.03976 -1.86278,3.70089 -2.67772,5.08648 -1.3616,2.31503 -3.13296,4.35862 -4.47551,6.67674 -2.44043,4.21378 -3.77692,8.83758 -5.43435,13.37976 -4.69599,12.86944 -6.51849,27.09286 -7.44847,40.71224 -0.35759,5.23703 0.14049,10.41495 0,15.64528 -0.0985,3.66874 -0.63931,7.32081 -0.66942,10.99148 -0.0543,6.61895 0.58555,13.22073 0.45603,19.86063 -0.23061,11.82354 -0.33573,23.62346 -0.29525,35.45914 0.0183,5.31524 0.55214,10.60506 0.37711,15.93469 -0.59579,18.14161 -1.31709,36.54113 2.22168,54.4779 4.77033,24.17913 19.46974,45.08492 25.92639,68.796 4.10615,15.07921 5.01645,30.82748 9.07965,45.87179 2.359,8.73445 6.91002,15.92474 10.55296,24.05552 2.01843,4.50496 3.7559,9.16998 5.99853,13.5727 4.53488,8.90284 12.1847,15.68733 18.02776,23.62285 2.55272,3.46691 4.35096,7.44313 6.66795,11.06162 2.05393,3.20768 4.58904,6.10857 6.80243,9.20827 7.26858,10.17923 14.52042,20.68832 24.05259,28.92859 7.77398,6.72036 15.78247,13.43546 25.1488,17.86112 2.31606,1.09437 21.13465,6.43421 22.09692,7.56832 0.38248,0.45075 -0.52515,-0.5966 -3.64236,-2.65139 -1.65529,-1.09108 -9.50373,-4.92315 -2.89113,-3.95224 5.40025,0.79288 6.4212,5.74673 9.61461,6.77318 0.27226,0.0875 -0.55115,-0.15375 -0.83021,-0.21632 -1.1966,-0.26832 -2.41519,-0.70837 -3.64238,-0.74835 -1.80904,-0.0589 -3.57378,0.26146 -5.38465,0.21632 -0.73265,-0.0183 -2.53828,0.52785 -2.19535,-0.11985 0.2518,-0.47565 0.83174,0.70664 1.12543,1.1576"
       id="path18208" />
    <path
       style="fill:none;stroke:#000000;stroke-width:0.865"
       d="m 528.64472,95.182617 c 11.95654,-0.2673 23.95683,-0.319407 35.93012,-0.552222 3.99452,-0.07767 7.97475,0.69609 11.9435,1.051555 4.72155,0.422886 9.4651,0.697449 14.18043,1.168217 3.2553,0.325004 6.43427,1.210694 9.69264,1.538441 3.35505,0.337473 6.7519,0.253174 10.10483,0.577109 4.58669,0.44313 9.02333,1.229013 13.65308,1.371993 4.37931,0.13525 7.71475,-0.359255 11.90152,-1.320661 1.13271,-0.260101 2.34899,-1.096859 3.47668,-1.20555 0.11408,-0.01101 -0.21974,-0.06565 -0.32825,-0.102666 -0.64278,-0.219287 -1.29905,-0.335738 -1.96619,-0.462 -1.55022,-0.293391 -3.0633,-0.726059 -4.37579,-1.55244 -0.12065,-0.07597 0.28601,-0.01529 0.42778,0 0.61878,0.06679 1.23457,0.158917 1.85266,0.231778 0.7357,0.08672 7.20458,1.076645 7.38265,1.897771 0.0974,0.448943 -0.6413,0.663901 -1.01111,0.936443 -2.02382,1.491575 -4.36615,2.453345 -6.52865,3.706875 -1.22224,0.7085 -1.12783,1.84058 -2.45155,2.34733"
       id="path18410" />
  </g>
</svg>
